<?xml version="1.0" encoding="UTF-8" standalone="no"?>
<svg
   xmlns:dc="http://purl.org/dc/elements/1.1/"
   xmlns:cc="http://creativecommons.org/ns#"
   xmlns:rdf="http://www.w3.org/1999/02/22-rdf-syntax-ns#"
   xmlns:svg="http://www.w3.org/2000/svg"
   xmlns="http://www.w3.org/2000/svg"
   xmlns:sodipodi="http://sodipodi.sourceforge.net/DTD/sodipodi-0.dtd"
   xmlns:inkscape="http://www.inkscape.org/namespaces/inkscape"
   width="300"
   height="293.31296"
   viewBox="0 0 30.72 30.037353"
   preserveAspectRatio="xMidYMid"
   version="1.1"
   id="svg4"
   sodipodi:docname="gnu.svg"
   inkscape:version="0.92.3 (2405546, 2018-03-11)">
  <metadata
     id="metadata10">
    <rdf:RDF>
      <cc:Work
         rdf:about="">
        <dc:format>image/svg+xml</dc:format>
        <dc:type
           rdf:resource="http://purl.org/dc/dcmitype/StillImage" />
        <dc:title></dc:title>
      </cc:Work>
    </rdf:RDF>
  </metadata>
  <defs
     id="defs8" />
  <sodipodi:namedview
     pagecolor="#ffffff"
     bordercolor="#666666"
     borderopacity="1"
     objecttolerance="10"
     gridtolerance="10"
     guidetolerance="10"
     inkscape:pageopacity="0"
     inkscape:pageshadow="2"
     inkscape:window-width="1366"
     inkscape:window-height="731"
     id="namedview6"
     showgrid="false"
     fit-margin-top="0"
     fit-margin-left="0"
     fit-margin-right="0"
     fit-margin-bottom="0"
     inkscape:zoom="0.09628723"
     inkscape:cx="1245.3163"
     inkscape:cy="1217.1213"
     inkscape:window-x="0"
     inkscape:window-y="0"
     inkscape:window-maximized="1"
     inkscape:current-layer="svg4" />
  <path
     d="m 6.4842654,17.490484 c -0.2087286,0.0141 -0.4806168,0.10767 -0.6628782,0.43454 -0.1489373,0.26696 -0.4977004,0.30955 -0.6604726,0.25577 -0.2714073,-0.0896 -0.6181252,-0.15182 -0.9540157,0.0875 -0.3356499,0.23929 -0.6984887,0.0584 -0.6348475,-0.37775 0.063641,-0.43623 0.2211199,-0.82469 0.6394191,-1.0653 0.9132324,-0.52537 0.2785052,-0.89098 0.7798146,-1.41839 0.5021515,-0.52826 0.3912307,-0.68995 0.3746286,-1.40756 C 3.6684154,13.744244 2.706219,13.255084 1.6320189,11.912844 0.55757828,10.570604 0.14120394,9.4657238 0.02980185,7.7827838 c -0.11128178,-1.6827 -0.0147975,-2.7735 0.71220343,-4.17036 0.72712112,-1.39685 1.49273982,-2.06924 2.81933892,-2.76677 1.3265992,-0.6974 2.6263706,-0.86438 3.8278526,-0.84405 1.2014826,0.0202 2.00211,0.10827 2.6809892,0.49565 0.678758,0.38739 1.299771,0.87462 1.695693,0.87823 0.395923,0.004 0.665526,-0.10021 0.857893,-0.24771 0.05137,1.30458 -1.122683,1.41779 -2.173063,1.44546 -1.0502594,0.0274 -1.6958138,-0.40699 -2.6631836,-0.24542 -0.9674898,0.16169 -2.5514204,0.60188 -3.3230543,1.94497 -0.7716339,1.3432 -0.7979806,1.81792 -0.7338582,2.94421 0.064122,1.12641 1.0336573,1.96674 1.5808028,1.97588 0.5472657,0.009 0.6693747,-0.1493 1.1483079,-0.46173 0.4790526,-0.31243 2.9244852,-3.33965 3.7589174,-4.01961 0.834434,-0.67997 1.657799,-0.8899 2.54697,-0.90084 0.889172,-0.0108 1.116427,0.0193 1.833443,0.31315 0.717015,0.29378 1.157811,0.83503 1.735995,1.16587 0.295468,-0.17396 0.479053,-0.43358 0.7501,-0.63184 0.969775,-0.70872 1.473731,-0.89976 2.62625,-0.78751 0.662397,0.0645 1.497792,0.44284 1.996094,0.87618 0.887488,0.77163 1.620624,1.84595 2.213124,2.66197 0.461248,0.63557 1.004183,1.39602 1.779185,1.63374 0.846223,0.25938 1.482995,-0.8366 1.576472,-1.4445 0.05293,-0.34443 0.122109,-0.64639 0.122711,-1.02547 4.81e-4,-0.3792 -0.03826,-0.83937 -0.147494,-1.23445 -0.109357,-0.3952 -0.296551,-0.78836 -0.499264,-1.11438 -0.329875,-0.53054 -0.869803,-1.08587 -1.431385,-1.37159 -0.315198,-0.16037 -1.056876,-0.45175 -1.524259,-0.46197 -0.572891,-0.0125 -1.009356,0.17997 -1.538817,0.21606 -0.641103,0.0437 -1.786163,0.1878 -2.288675,-0.30737 -0.31977,-0.3152 -0.359951,-0.52549 -0.41469,-0.93646 0.141358,0.11646 0.338898,0.19297 0.514904,0.20789 0.401336,0.0339 0.777168,-0.2939 1.101148,-0.48374 0.266956,-0.1564 0.644833,-0.43611 0.995401,-0.57747 0.900721,-0.36308 2.007162,-0.35249 2.95805,-0.25529 0.76213,0.078 1.750192,0.41698 2.418604,0.79522 0.671661,0.37992 1.318779,1.02055 1.792779,1.62448 0.596351,0.75984 0.922376,1.41177 1.138443,2.35941 0.276099,1.21026 0.352493,3.02806 0.01877,4.22149 -0.262986,0.9403002 -1.136397,2.3846702 -1.88,3.0927902 -0.733256,0.69837 -1.579961,1.03546 -2.542879,1.21989 0.03778,0.19429 0.04391,0.37559 0.09384,0.53487 0.07074,0.22617 0.206082,0.47834 0.484227,0.39857 0.110801,-0.0317 0.170231,-0.0593 0.316401,0.0686 0.14617,0.12788 0.07002,0.62197 -0.341184,0.84369 -0.208488,0.11248 -0.428525,0.13691 -0.76249,0.14365 -0.333966,0.007 -0.855126,0.008 -1.217724,-0.0553 -0.362478,-0.0635 -0.579147,-0.35129 -0.980603,-0.39628 -0.620531,-0.0694 -1.095614,-0.51767 -1.593194,-0.83829 -0.207646,-0.13389 -0.277663,-0.13522 -0.397246,-0.20283 0.0646,0.1979 0.150862,0.40338 0.19369,0.59358 0.04331,0.19032 0.02479,0.36657 0.04764,0.51876 0.02286,0.15218 0.06497,0.27044 0.08963,0.39387 0.09937,0.089 0.131131,0.22413 0.298114,0.2666 0.167223,0.0425 0.428766,-0.0236 0.599719,-0.0466 0.170833,-0.0231 0.285482,-0.11621 0.419623,-0.0907 0.134139,0.0255 0.261301,0.12151 0.373786,0.21162 0.112485,0.09 0.209089,0.10322 0.30016,0.32782 0.09095,0.22473 0.174442,0.68478 0.186953,0.99228 0.01239,0.3075 -0.02201,0.58516 -0.113086,0.82914 -0.09119,0.24398 -0.171314,0.35225 -0.418059,0.59394 -0.246865,0.2417 -0.648682,0.59636 -1.049658,0.84334 0.07375,0.10948 0.10659,0.20957 0.221722,0.32819 0.115131,0.11874 0.355139,0.25167 0.46197,0.37691 0.10671,0.12512 0.160847,0.21499 0.162411,0.3555 0.0017,0.1404 -0.0052,0.32278 -0.119101,0.47593 -0.28392,0.38112 -0.61981,0.44934 -1.028124,0.62859 0.06869,0.42876 0.124756,0.73506 0.02551,1.16334 -0.04054,0.17445 -0.13053,0.56989 -0.345635,0.67131 -0.215345,0.10154 -0.630396,0.0524 -0.893021,0.0941 -0.262745,0.0419 -0.409757,0.0815 -0.614516,0.12211 -0.124395,0.17998 -0.309785,0.37848 -0.373305,0.53969 -0.06352,0.16121 -0.04439,0.21907 0.009,0.38377 0.05341,0.1647 0.235075,0.40446 0.286565,0.59732 0.05149,0.19284 0.06148,0.40037 0.01348,0.5937 -0.04812,0.19345 -0.130531,0.33372 -0.295228,0.5054 -0.164817,0.17179 -0.488917,0.30665 -0.650366,0.44573 -0.161569,0.13931 -0.322417,0.15603 -0.278385,0.3863 0.06063,0.31639 0.522964,0.8295 0.857291,0.9516 0.200427,0.0734 0.469548,0.0502 0.712925,-0.0526 -0.01648,0.27033 -0.250354,0.45235 -0.403141,0.63184 0.413848,-0.11826 0.814943,-0.34479 1.092487,-0.64495 -0.08602,0.2607 -0.382208,0.67924 -0.82517,1.04689 -0.442962,0.36753 -0.440315,0.29234 -0.660472,0.43851 0.401817,0.0807 0.775363,0.0589 1.086591,0.003 -0.170592,0.0941 -0.45018,0.22629 -0.820718,0.26528 -0.370418,0.0389 -0.598756,0.0113 -0.932602,-0.0698 -0.333965,-0.0811 -0.638697,-0.38462 -1.043282,-0.59382 0.03946,0.15013 0.06737,0.33059 0.237602,0.48482 0.170111,0.15448 0.427563,0.23291 0.701136,0.36645 -0.348282,-0.0396 -0.714249,-0.0515 -1.056516,-0.12692 -0.253482,-0.0559 -0.423713,-0.11525 -0.609102,-0.20705 -0.185269,-0.0918 -0.328431,-0.22581 -0.492527,-0.33865 0.07868,0.15038 0.102018,0.32698 0.235797,0.4509 0.133899,0.12391 0.35153,0.16999 0.527535,0.25504 -0.183584,-0.004 -0.360192,0.0359 -0.550513,-0.012 -0.190322,-0.0478 -0.368975,-0.12307 -0.566876,-0.26888 -0.198021,-0.14581 -0.402178,-0.32542 -0.571086,-0.50888 -0.168787,-0.18371 -0.377275,-0.42167 -0.440315,-0.59094 -0.06316,-0.16927 0.0379,-0.28777 0.0569,-0.43142 -0.116696,0.0765 -0.259979,0.11874 -0.349606,0.22991 -0.08963,0.11116 -0.169027,0.2127 -0.129327,0.40663 0.0397,0.19369 0.218594,0.43069 0.345033,0.64616 -0.377395,-0.30859 -0.588169,-0.42733 -0.677916,-0.79967 -0.08421,-0.34852 0.133418,-0.66493 0.298716,-0.92851 0.08205,-0.13089 0.204879,-0.25264 0.281634,-0.37896 -0.170472,-0.16686 -0.365245,-0.31027 -0.511295,-0.50047 -0.14617,-0.19008 -0.207526,-0.44753 -0.356583,-0.62956 -0.149178,-0.18201 -0.349846,-0.29715 -0.524528,-0.44572 0.153508,0.33 0.405907,0.7347 0.460767,0.9901 0.05474,0.25529 -0.06136,0.41145 -0.152066,0.54944 -0.09071,0.13774 -0.237,0.16842 -0.375711,0.25324 -0.138711,0.0847 -0.354538,0.0179 -0.437307,0.14364 -0.08253,0.12572 -0.104665,0.31496 -0.02575,0.43947 l 0.324101,0.51154 c -0.119463,-0.0603 -0.325184,-0.23556 -0.417818,-0.35995 -0.09276,-0.12427 -0.235075,-0.23917 -0.254565,-0.40735 -0.01949,-0.16807 -0.02887,-0.314 0.08,-0.46366 0.108876,-0.14966 0.40711,-0.1997 0.540528,-0.31483 0.133539,-0.11514 0.208368,-0.19009 0.200789,-0.33878 -0.0076,-0.14882 -0.152908,-0.25517 -0.277904,-0.34889 -0.381366,-0.28608 -0.870524,-0.54979 -1.194384,-0.89446 -0.182863,-0.19477 -0.270686,-0.35201 -0.307499,-0.48639 -0.03669,-0.13438 0.0022,-0.23917 0.093,-0.40447 0.09095,-0.1653 0.402659,-0.38593 0.440555,-0.56543 0.0379,-0.17962 -0.119582,-0.21811 -0.261662,-0.28151 -0.14208,-0.0633 -0.411923,0.0325 -0.543777,-0.0776 -0.131734,-0.1102 0.03874,-0.34167 -0.109838,-0.46858 -0.148456,-0.12693 -0.488317,-0.056 -0.663721,-0.19249 -0.175404,-0.13667 -0.247827,-0.30618 -0.308341,-0.50432 -0.06051,-0.19814 -0.06737,-0.41505 -0.02647,-0.55857 0.04102,-0.14352 0.164095,-0.16867 0.238444,-0.24302 0.07423,-0.0744 0.138591,-0.13594 0.0397,-0.24687 -0.09901,-0.11079 -0.423232,0.006 -0.609584,-0.13606 -0.186472,-0.14232 -0.0723,-0.48326 -0.204157,-0.62703 -0.131733,-0.14364 -0.368132,-0.0875 -0.493008,-0.13329 -0.124756,-0.046 -0.17372,0.11609 -0.250233,-0.14016 -0.07651,-0.25625 -0.07868,-1.01982 -0.1816606,-1.30482 -0.1028604,-0.28512 -0.3050928,-0.0193 -0.3990504,-0.30257 -0.093838,-0.2832 -0.0048,-0.73614 -0.04716,-1.16395 l -0.1916454,-1.16394 c -0.6684126,0.4491 -1.1096898,0.59009 -1.8279084,0.71701 -0.05991,1.75717 -0.22497,2.79191 0.3715008,4.74145 0.5963496,1.94941 1.803366,3.09844 3.431689,4.7489 -2.1486406,-1.60967 -3.174478,-2.91847 -3.816544,-4.59491 -0.6420654,-1.67681 -0.5187534,-3.07908 -0.4542702,-4.69369 z m 11.4176316,-0.7063 c 0.165298,0.007 0.366207,0.0493 0.48218,0.12463 0.116215,0.0754 0.239407,0.13703 0.344794,0.24422 0.262985,0.2678 0.460165,0.5907 0.547386,0.96183 0.05546,0.23652 0.06376,0.53993 0.08397,0.81772 -0.07952,-0.25674 -0.133056,-0.52453 -0.246384,-0.75444 -0.178772,-0.36271 -0.482421,-0.71665 -0.859576,-0.87966 -0.124515,-0.0539 -0.207525,-0.0439 -0.275979,-0.0344 0.03068,0.0514 0.08193,0.0946 0.08421,0.16987 0.0022,0.0753 -0.01468,0.22268 -0.14232,0.28464 -0.205961,0.0999 -0.434901,0.0296 -0.593944,-0.11092 -0.160366,-0.14172 -0.214984,-0.38137 -0.131132,-0.58745 0.100093,-0.24542 0.481219,-0.24614 0.70679,-0.23603 z m -2.072729,-0.34937 c 0.02081,-0.42203 0.173119,-0.77801 0.551356,-0.98493 0.195495,-0.10707 0.496859,-0.24543 0.7738,-0.27791 0.265873,-0.0313 0.912871,-0.008 1.302057,0.16927 0.298837,0.13642 0.502392,0.34876 0.764897,0.50396 0.262264,0.15519 0.448976,0.25925 0.698729,0.43333 0.383531,0.26732 0.60826,0.56158 0.874134,0.73795 0.127883,0.0847 0.307738,0.0722 0.477489,0.12392 -0.131975,0.0392 -0.304491,0.0825 -0.446932,0.037 -0.177449,-0.0568 -0.425758,-0.21896 -0.563507,-0.33542 -0.243377,-0.2056 -0.369576,-0.30593 -0.635208,-0.461 -0.158562,-0.0924 -0.419744,-0.20127 -0.593945,-0.31496 -0.174441,-0.11357 -0.477128,-0.36296 -0.644592,-0.44741 -0.213059,-0.10719 -0.59659,-0.16687 -0.833711,-0.15989 -0.326627,0.01 -0.799544,0.0634 -1.052425,0.29282 -0.251076,0.22798 -0.346477,0.42853 -0.289934,0.72472 0.09468,-0.109 0.157599,-0.2459 0.252399,-0.32687 0.196337,-0.1677 0.421547,-0.17576 0.665887,-0.144 0.274414,0.0358 0.412644,0.19429 0.503354,0.45475 -0.06112,-0.0448 -0.173239,-0.14316 -0.261783,-0.17372 -0.207886,-0.0717 -0.365004,-0.0496 -0.559657,0.0548 -0.229782,0.12331 -0.167224,0.30569 -0.200428,0.50865 -0.01516,0.0936 -0.05053,0.16903 -0.07579,0.2536 -0.08638,-0.0229 -0.16626,-0.059 -0.231706,-0.12368 0.0028,0.0948 -0.01107,0.17769 0.0084,0.28428 0.01925,0.10659 0.07122,0.2334 0.106831,0.34985 -0.160005,-0.16001 -0.323861,-0.30918 -0.427202,-0.51575 -0.103462,-0.20692 -0.1736,-0.43634 -0.162411,-0.66336 z m 0.276942,-3.07186 c 0.117898,-0.17504 0.152546,-0.44356 0.22533,-0.66191 -0.02911,0.27657 0.02683,0.58071 -0.108274,0.78101 -0.134982,0.20031 -0.372102,0.16518 -0.56856,0.22341 0.152787,-0.11658 0.333485,-0.16734 0.451504,-0.34251 z m -2.824152,4.10083 c 0.151584,-0.12271 0.560259,-0.0247 0.865953,-0.003 l -0.659149,0.16879 c -0.02045,0.0748 -0.01119,0.16048 -0.06136,0.22424 -0.05017,0.0638 -0.145569,0.0874 -0.218353,0.13102 0.0072,-0.19646 -0.07856,-0.39881 0.0729,-0.52128 z m 2.154175,-8.5166102 c 0.182502,0.0983 0.414209,0.22822 0.575297,0.23219 0.161208,0.004 0.203314,-0.10539 0.298235,-0.16843 0.149178,0.48628 0.320371,1.0207902 0.574334,1.4620602 0.10635,0.18491 0.174201,0.0989 0.255046,0.28477 0.08085,0.18575 0.116696,0.56374 0.19345,0.80123 0.07675,0.23724 0.176848,0.41192 0.265272,0.618 -0.224489,-0.31821 -0.514664,-0.72387 -0.63978,-0.98867 -0.125117,-0.26466 -0.04499,-0.28776 -0.146291,-0.5398 -0.101176,-0.25216 -0.305814,-0.6452 -0.458842,-0.9677302 -0.109477,0.0145 -0.24506,0.0344 -0.328431,0.009 -0.08313,-0.0257 -0.06653,-0.11429 -0.141839,-0.17144 -0.07531,-0.0572 -0.201871,-0.0351 -0.307379,-0.12644 -0.105507,-0.0914 -0.129448,-0.27875 -0.139072,-0.44453 z m -0.982528,2.4000802 c 0.171675,-0.0152 0.384975,0.0309 0.545822,0.0217 0.160847,-0.009 0.275618,-0.0508 0.413487,-0.0762 -0.02563,-0.24229 -0.0013,-0.68742 -0.224969,-0.8491 -0.144366,-0.10443 -0.737708,-0.0257 -0.89627,0.008 -0.356463,0.0769 -0.771754,0.28969 -1.116667,0.42274 0.330597,-0.23098 0.615959,-0.44488 1.012483,-0.56398 0.238203,-0.0717 0.794372,-0.16482 1.040274,-0.0984 0.112245,0.0303 0.134982,0.0768 0.203075,0.17204 0.234112,0.32675 0.233391,0.60922 0.294144,0.98987 0.05967,0.0931 0.123313,0.15519 0.171675,0.25108 0.04824,0.096 0.07567,0.24698 0.08903,0.37041 -0.06111,-0.0889 -0.0237,-0.20031 -0.19333,-0.26635 -0.16987,-0.0662 -0.429728,-0.004 -0.658547,0.0195 0.166742,0.12031 0.249632,0.23616 0.256008,0.4906 0.0075,0.2986 -0.245422,0.5137 -0.50937,0.53415 -0.366568,0.0284 -0.555567,-0.0522 -0.703782,-0.36548 -0.06496,-0.13715 -0.01793,-0.3022 -0.02334,-0.43599 -0.440316,0.0305 -0.433097,0.0163 -0.755032,0.28464 0.174922,0.25625 0.285121,0.40375 0.574214,0.55701 0.16217,0.0862 0.345755,0.16976 0.546664,0.20392 0.200908,0.0343 0.530664,0.0674 0.741798,0.0349 0.211135,-0.0325 0.330838,-0.0926 0.487234,-0.23748 0.156636,-0.14473 0.170953,-0.35201 0.232188,-0.51599 -0.01396,0.15784 -0.03212,0.35863 -0.09059,0.47304 -0.178051,0.3478 -0.486152,0.4509 -0.854043,0.45211 -0.352974,0.001 -0.78968,-0.0804 -1.118111,-0.21655 -0.262625,-0.10876 -0.697887,-0.41698 -0.801229,-0.68478 -0.07062,-0.18286 -0.01468,-0.40747 -0.02213,-0.61115 0.363681,-0.24181 0.453549,-0.18238 0.883878,-0.25312 0.179856,-0.0296 0.303649,-0.0965 0.475444,-0.11164 z M 12.335642,9.7095438 c 0.01022,-0.14485 0.02623,-0.14172 0.03934,-0.2127 -0.331198,-0.0885 -0.464015,0.12632 -0.658307,0.5254902 -0.07266,0.1493 -7.2e-4,0.23821 -0.07868,0.33649 -0.07784,0.0983 -0.203315,0.0846 -0.329875,0.1789 -0.12632,0.0944 -0.251798,0.27514 -0.369937,0.37294 -0.242654,0.20043 -0.570725,0.3229 -0.852118,0.45788 0.192247,-0.14184 0.565191,-0.35682 0.685737,-0.56302 0.06412,-0.10912 0.05462,-0.3152 0.15423,-0.41325 0.09961,-0.0983 0.134501,-0.16626 0.263106,-0.19128 0.128606,-0.0251 0.07687,-0.17421 0.11838,-0.2925902 0.04138,-0.1185 0.124034,-0.20271 0.211977,-0.32097 0.08782,-0.11838 0.198863,-0.29619 0.372343,-0.36067 0.173599,-0.0646 0.444285,0.005 0.575778,-0.0319 0.131252,-0.0373 0.05582,-0.1327 0.151343,-0.19008 0.09552,-0.0574 0.281272,-0.032 0.408915,-0.0934 0.226173,-0.10876 0.334447,-0.2903 0.470391,-0.48483 0.01985,0.41854 0.01504,0.71979 -0.135342,1.11342 -0.169389,0.44308 -0.340944,0.7040202 -0.821681,0.9765102 -0.165539,0.0938 -0.330236,0.12632 -0.467504,0.17565 0.08,-0.10912 0.194533,-0.15652 0.240129,-0.32747 0.04547,-0.17108 0.01155,-0.5102202 0.02165,-0.6551802 z m 7.759047,2.0402502 c -0.228579,0.0148 -0.282715,-0.0153 -0.465579,0.11368 0.09925,0.15423 0.198263,0.30846 0.297153,0.46269 -0.0087,-0.30436 0.02105,-0.36548 0.168426,-0.57637 z m -0.598636,-0.22136 c 0.316402,-0.13474 0.59214,-0.24374 0.936451,-0.26527 0.13799,-0.009 0.352253,0.0127 0.491685,0.019 0.118742,-0.17481 0.269964,-0.31268 0.325425,-0.51214 0.03681,-0.13234 0.01865,-0.74649 -0.04632,-0.9059002 -0.18936,-0.46413 -0.373426,-0.48362 -0.634005,-0.74949 -0.188999,-0.19285 -0.196578,-0.48639 -0.253122,-0.81531 -0.02069,-0.12078 -0.08,-0.27369 -0.107792,-0.39845 -0.340703,-0.0574 -0.70703,-0.0763 -1.098863,-0.0566 0.190081,-0.18226 0.373786,-0.34888 0.428284,-0.62245 0.05438,-0.27357 0.0101,-0.60995 -0.145447,-0.85537 -0.155555,-0.24542 -0.403983,-0.45908 -0.632081,-0.65903 -0.228098,-0.19982 -0.555085,-0.36488 -0.771273,-0.52838 0.281152,-0.10069 0.568199,-0.24855 0.843576,-0.30196 0.717497,-0.13919 1.335622,0.0736 2.027614,0.49204 0.402299,0.24326 0.735061,0.47449 1.155646,0.9148 0.420465,0.44032 0.941986,1.2478 1.349097,1.72673 0.40711,0.47882 0.735783,0.85778 1.090922,1.14338 0.355259,0.2856 0.676713,0.36693 1.01501,0.55051 l 0.527175,0.5597802 0.42672,-0.5279002 0.686579,0.0776 0.141959,-0.77067 0.630036,-0.17264 -0.102741,-1.03883 0.453068,-0.32157 -0.340463,-0.6464 0.345876,-0.70619 -0.451142,-0.80736 0.17396,-0.77741 -0.522121,-0.44512 -0.06821,-0.82602 -0.728445,-0.2779 -0.29222,-0.71858 -0.819034,-0.009 -0.401817,-0.53355 -0.551236,0.0386 -0.614757,-0.0669 -0.347439,-0.25661 -0.504438,0.33493 -0.610425,-0.31832 -1.213393,0.46064 0.791004,-0.6879 0.819514,-0.13089 0.62775,-0.16001 0.847907,0.27839 0.746249,-0.18888 0.719543,0.42528 0.761528,-0.0421 0.374027,0.67118 0.75816,0.0875 0.410238,0.74625 0.476768,0.26034 0.12656,0.95594 0.424675,0.40278 -0.186713,0.83648 0.500348,0.6334 -0.469188,0.67864 0.50167,0.42431 -0.641224,0.56832 0.649405,0.67635 -0.784387,0.25289 0.510934,0.72543 -0.640622,0.11056 0.420104,0.7976302 -0.721948,-0.01 0.363681,0.59743 -0.791966,-0.0953 0.18948,0.85958 -0.598516,-0.52658 -0.204999,1.04184 -0.413006,-0.74805 -0.223766,0.93296 -0.509851,-0.68802 0.01396,0.97831 -0.563507,-0.87954 c 0.118861,0.49902 0.09504,1.04544 0.422871,1.51608 1.015612,-0.13751 1.679452,-0.3934 2.457583,-1.14217 0.708594,-0.68189 1.555779,-2.10377 1.78508,-3.0055802 0.261783,-1.02908 0.269843,-2.92172 0.01203,-3.96945 -0.248068,-1.00875 -0.570605,-1.49057 -1.146744,-2.31369 -0.550634,-0.58493 -1.092246,-1.20281 -1.791215,-1.61991 -1.025958,-0.61223 -2.34149,-0.77717 -3.51085,-0.7614 -0.64736,0.009 -1.081178,0.13317 -1.468198,0.27405 -0.676954,0.24614 -1.218325,0.78306 -1.906468,1.04845 -0.224488,0.0864 -0.404343,0.089 -0.581071,-0.005 0.172998,0.34624 0.361275,0.50167 0.792928,0.62763 0.312191,0.0911 1.057237,0.0335 1.570095,-0.0138 0.550635,-0.0509 0.837802,-0.21463 1.587059,-0.20428 0.731813,0.01 1.311682,0.28801 1.628804,0.46918 0.654096,0.37415 1.123285,0.7892 1.530877,1.44643 0.223766,0.36091 0.380644,0.76826 0.491083,1.18379 0.11044,0.41566 0.158802,0.88112 0.1659,1.28799 0.0071,0.40687 -0.02406,0.77007 -0.123552,1.13615 -0.23279,0.85717 -0.74625,1.7295 -1.801081,1.59477 -0.645554,-0.0825 -1.618698,-1.29413 -1.944604,-1.73865 -0.657585,-0.89711 -1.334178,-1.88987 -2.160551,-2.63696 -0.503715,-0.45535 -1.193542,-0.76875 -1.870977,-0.8307 -1.270778,-0.11634 -1.647693,0.12512 -2.604234,0.91359 0.194652,0.062 0.384613,0.0962 0.583958,0.18611 0.442721,0.19947 0.847426,0.45716 1.20064,0.78788 0.369937,0.34648 0.535837,0.56579 0.54907,1.06205 0.0087,0.32951 -0.262384,0.5937 -0.510933,0.8313 -0.152065,0.14557 -0.353215,0.27887 -0.476407,0.39183 -0.163133,0.14991 -0.365244,0.31388 -0.160245,0.55269 0.07711,0.0897 0.211014,0.15747 0.32398,0.2412 0.179254,0.13307 0.09709,0.62739 -0.138952,0.75852 -0.302205,0.16771 -0.663119,0.14894 -0.91227,-0.0754 0.314476,-0.047 0.514182,-0.0888 0.506001,-0.346 -0.0048,-0.14918 -0.194292,-0.27309 -0.380282,-0.3579 -0.448737,-0.20453 -0.787635,-0.17445 -1.234206,-0.49566 -0.451142,-0.32471 -0.461007,-0.50252 -0.582876,-1.01225 -0.21751,0.0229 -0.417817,0.0277 -0.708594,0.12404 -0.290776,0.0962 -0.61211,0.32542 -0.876178,0.38209 -0.664924,0.14316 -0.797379,0.10069 -1.161301,0.006 -0.640622,-0.16578 -1.474935,0.11813 -2.303473,0.38316 -0.137869,0.044 -0.69512,10e-4 -1.07023,0.13318 -0.5795074,0.20332 -1.3924054,0.6956 -1.8619546,1.09105 -0.7114818,0.5991102 -1.6464894,2.3925002 -2.1747468,4.4509002 -0.05546,0.62571 0.1224702,1.04738 -0.2717681,1.35295 -0.394118,0.30557 -0.3831702,1.08864 -0.5168287,1.30819 -0.1336585,0.21956 -0.2883702,0.12259 -0.5761389,0.43093 -0.2876483,0.30834 -0.4341794,0.25686 -0.4268408,0.83997 0.2478276,-0.16301 0.6093429,-0.35249 0.9267066,-0.36392 0.2811519,-0.0102 0.2841595,0.35983 1.0056263,-0.35333 0.3858168,-0.38161 1.1271342,-0.3934 1.6414362,-0.56159 0.5143026,-0.1683 1.4412498,-0.51514 2.3695198,-1.55289 0.928271,-1.03786 1.372556,-2.13047 1.552531,-3.70995 0.02863,0.27995 0.07844,0.59586 -0.0415,1.36834 -0.119943,0.7726 -0.378357,1.64024 0.166021,2.67955 l 0.339259,0.6476 c -0.201871,-0.27574 -0.59635,-0.72532 -0.715211,-1.04569 l -0.273934,-0.73915 c -0.612952,0.96244 -0.753828,1.13447 -1.6052242,1.82394 -0.033924,0.4278 -0.042108,0.87389 0.097567,1.28317 0.1397942,0.40915 -0.083011,0.88098 0.02334,1.15047 0.1063494,0.26948 0.3523722,0.11609 0.4326162,0.38906 0.08036,0.27286 -0.04187,0.8123 0.08265,1.07829 0.124636,0.26588 0.430209,0.10467 0.578304,0.19045 0.148216,0.086 0.196578,0.20379 0.275858,0.31676 0.07916,0.11308 -0.03104,0.38016 0.13017,0.46678 0.160968,0.0867 0.412284,0.0133 0.579869,0.0965 0.167584,0.0832 0.193089,0.28344 0.152907,0.46269 -0.04018,0.17938 -0.219315,0.26167 -0.297995,0.44393 -0.07856,0.18238 -0.06978,0.3093 0.02466,0.47677 0.09444,0.16746 0.303649,0.25974 0.512137,0.34431 0.208367,0.0845 0.50131,0.0371 0.716414,0.15399 0.215225,0.1167 0.408555,0.34961 0.522122,0.51887 0.113568,0.16927 0.145208,0.28873 0.139313,0.46666 -0.0058,0.17781 -0.07796,0.38282 -0.172998,0.55461 -0.09504,0.17192 -0.304491,0.38112 0.02262,0.70932 0.327229,0.32807 0.315198,0.18659 0.502633,0.39953 -0.02045,-0.36825 -0.172637,-0.6683 -0.06135,-0.9456 0.111281,-0.27718 0.445367,-0.3253 0.621493,-0.44994 0.176126,-0.12487 0.277543,-0.29619 0.416375,-0.44416 -0.002,0.19044 0.01841,0.3952 -0.0032,0.5386 -0.04415,0.29162 -0.13017,0.55051 0.30437,0.59731 0.195736,0.0209 0.381607,-0.10586 0.587568,-0.18214 -0.107913,0.19321 -0.295588,0.34865 -0.323739,0.57987 -0.02827,0.23123 0.0056,0.48519 0.16578,0.71461 0.160005,0.2293 0.436705,0.39965 0.639178,0.53439 0.202593,0.13487 0.311108,0.14558 0.466782,0.2186 0.0076,0.22737 -0.03718,0.46798 -0.01119,0.682 0.02587,0.21415 0.09336,0.40351 0.217149,0.58047 0.123914,0.17709 0.322417,0.27863 0.509611,0.40952 -0.10262,-0.23892 -0.310627,-0.46557 -0.307859,-0.71653 0.0028,-0.25108 0.0782,-0.42901 0.323017,-0.65181 0.24482,-0.2228 0.818072,-0.41602 1.088517,-0.63268 0.270324,-0.21667 0.357545,-0.34937 0.454631,-0.55978 0.09709,-0.21029 0.07002,-0.54919 0.08794,-0.73831 0.08903,0.26491 0.101778,0.3472 0.130651,0.62438 0.02899,0.27718 -0.161569,0.66588 -0.242173,0.87101 0.334447,-0.16145 0.546664,-0.41963 0.653736,-0.67191 0.0717,0.0425 0.03561,0.15916 0.06196,0.38377 0.119102,-0.11862 0.254685,-0.2098 0.374629,-0.32181 0.120064,-0.11188 0.251677,-0.21017 0.311228,-0.36621 0.05943,-0.15615 0.03513,-0.32217 -0.0091,-0.50359 -0.04439,-0.18142 -0.247106,-0.39171 -0.356222,-0.5901 -0.109116,-0.19838 0.01925,-0.39315 0.01191,-0.63219 -0.218473,-0.0374 -0.403862,-0.1487 -0.654938,-0.11261 -0.251196,0.0361 -0.538844,0.31796 -0.795454,0.32121 -0.25673,0.003 -0.400735,-0.23712 -0.611148,-0.30316 -0.210533,-0.0662 -0.423472,-0.059 -0.634968,-0.0883 0.268039,-0.25673 1.308193,-0.37896 2.019554,-0.49506 0.626065,-0.10213 1.247319,-0.1612 1.881565,-0.16998 0.283317,-0.004 0.647359,0.0895 0.844057,0.0329 0.196819,-0.0564 0.154832,-0.19045 0.21318,-0.33661 0.163373,-0.40844 0.08289,-0.77212 -0.006,-1.18344 -0.569402,-0.0668 -1.162744,-0.14846 -1.736477,-0.10443 -0.56086,0.0432 -1.225062,0.30979 -1.803607,0.32783 -0.502994,0.0157 -1.24792,-0.0962 -1.679813,-0.35971 -0.527777,-0.32157 -0.936211,-1.0126 -1.081178,-1.23432 -0.236038,-0.3614 -0.533912,-1.07035 -0.715091,-1.39446 -0.181058,-0.32422 -0.220999,-0.41481 -0.371741,-0.55015 -0.150742,-0.13522 -0.357185,-0.14569 -0.535717,-0.21859 0.205721,0.0211 0.430571,-0.0442 0.617524,0.063 0.280911,0.1612 0.595387,0.82926 0.77007,1.11991 0.185269,-0.62077 0.14196,-0.86499 0.677916,-1.21495 -0.431893,0.48411 -0.442721,0.85067 -0.547867,1.42056 0.35911,0.58949 0.858374,1.52835 1.511628,1.78893 0.236038,0.0941 0.641224,0.15314 0.89639,0.18466 0.79401,0.0983 1.559749,-0.15327 2.339564,-0.34587 0.570003,-0.14076 1.148428,-0.084 1.841623,-0.0433 0.235316,0.0139 0.790281,-0.12777 0.905172,-0.36573 0.06208,-0.12848 0.0575,-0.28283 -0.03164,-0.41974 -0.08927,-0.13679 -0.326867,-0.20307 -0.45427,-0.32627 -0.127403,-0.12319 -0.200668,-0.26935 -0.301002,-0.4041 -0.52934,0.10154 -0.964964,0.14064 -1.357999,0.15135 0.281874,-0.11622 0.552319,-0.18238 0.845742,-0.29716 0.293423,-0.11477 0.626546,-0.30317 0.863306,-0.45944 0.236759,-0.1564 0.387982,-0.24699 0.559416,-0.42889 0.171074,-0.18202 0.39075,-0.36957 0.51707,-0.5919 0.126319,-0.22256 0.145809,-0.47147 0.152907,-0.74673 0.0071,-0.27537 -0.0048,-0.66167 -0.111041,-0.8834 -0.105989,-0.22171 -0.310627,-0.28909 -0.474963,-0.34154 -0.164336,-0.0524 -0.276941,0.0802 -0.447894,0.0982 -0.171073,0.0179 -0.330838,0.12572 -0.578064,0.009 -0.247346,-0.11621 -0.540529,-0.35297 -0.790522,-0.70439 -0.249993,-0.35128 -0.428765,-0.92574 -0.683571,-1.36762 -0.439232,-0.76164 -0.986738,-1.47312 -1.510184,-2.17895 -0.04307,-0.17409 -0.107913,-0.41457 -0.129447,-0.65061 -0.03754,-0.41144 -0.04451,-0.83877 0.08301,-1.23986 0.09793,-0.3072602 0.240248,-0.6318402 0.561943,-0.7578002 0.128726,-0.0505 0.291498,-0.0705 0.40663,-0.0278 0.115131,0.0426 0.227977,0.17252 0.182862,0.32254 -0.04981,0.16506 -0.164095,0.16963 -0.241812,0.25288 -0.131853,0.14136 -0.184667,0.2450602 -0.234474,0.4213102 0.142561,-0.002 0.335169,-0.0133 0.452226,0.0176 0.152787,0.0402 0.294866,0.14148 0.372463,0.3579 -0.182262,-0.16169 -0.272851,-0.23579 -0.500347,-0.24156 -0.104184,-0.002 -0.230865,0.0346 -0.346237,0.0521 -0.04307,0.14016 -0.06833,0.31207 -0.129207,0.42058 -0.06087,0.1084 -0.179254,0.0824 -0.223767,0.20921 -0.04451,0.12645 -0.04716,0.33253 -0.02466,0.49891 z m 1.592473,-0.18996 c 0.06978,0.0277 0.09636,0.0337 0.184788,0.10093 0.08842,0.0673 0.210533,0.13438 0.28043,0.29511 0.07014,0.16085 0.06689,0.40952 0.05197,0.51081 -0.06148,-0.0181 -0.145329,-0.006 -0.20909,-0.0604 -0.06364,-0.0545 -0.101537,-0.17805 -0.183224,-0.23087 -0.08169,-0.0527 -0.149779,-0.0412 -0.240008,-0.0527 0.04632,0.13198 0.06893,0.26395 0.0474,0.38365 -0.04692,0.26106 -0.200307,0.3934 -0.448977,0.42468 -0.108515,0.0136 -0.280911,-0.0221 -0.37535,-0.0394 0.04379,0.0978 0.117899,0.18346 0.16181,0.28127 0.210172,-0.0304 0.365967,-0.0261 0.478932,-0.0789 0.113087,-0.0529 0.234234,-0.17131 0.379321,-0.22148 0.145087,-0.0502 0.274415,-0.0493 0.433097,-0.0741 -0.124997,0.10767 -0.206924,0.21546 -0.331921,0.32326 l 0.274776,0.79846 c 0.194171,0.12151 0.376313,0.18551 0.620892,0.33541 0.24482,0.15002 0.538243,0.41842 0.85693,0.56471 0.318807,0.14641 0.508528,0.22605 0.841651,0.28873 0.332883,0.0629 0.597914,0.33264 0.925503,0.37655 0.32771,0.0438 0.93982,0.0526 1.192219,0.0279 0.286806,-0.0279 0.65927,-0.17588 0.692714,-0.49024 -0.240368,0.0593 -0.607538,0.006 -0.792927,-0.44633 -0.08229,-0.20091 -0.04199,-0.57024 -0.167946,-0.80784 -0.125838,-0.23748 -0.301363,-0.31376 -0.511174,-0.60646 -0.209691,-0.2927 -0.5528,-0.75431 -0.745408,-1.1465 -0.192487,-0.39219 -0.237721,-0.83636 -0.400614,-1.18765 -0.162892,-0.35129 -0.408434,-0.6352102 -0.598876,-0.9058902 -0.415653,-0.5919 -0.750822,-0.99637 -1.435596,-1.29484 -0.329394,-0.14364 -0.704383,-0.18191 -1.056514,-0.27285 -0.143283,0.0642 -0.339861,0.1351 -0.37475,0.30268 -0.03489,0.16759 0.03212,0.41505 0.15375,0.54101 0.203676,0.2103 0.505279,0.43767 0.6239,0.77212 0.07615,0.2145 0.09829,0.9338002 0.03224,1.1289302 -0.06845,0.20272 -0.227617,0.32519 -0.359952,0.46017 z m 0.06617,1.70243 c -0.06352,0.055 -0.112003,0.11128 -0.214383,0.15687 -0.102258,0.0456 -0.241812,0.0574 -0.377516,0.0912 0.190322,0.29619 0.390149,0.5955 0.57241,0.90685 0.182382,0.31123 0.340462,0.65205 0.514423,0.97808 -0.0082,-0.18672 0.0028,-0.38594 -0.02442,-0.56062 -0.02707,-0.17444 -0.106229,-0.32723 -0.184668,-0.58937 -0.07832,-0.26203 -0.174683,-0.61861 -0.285723,-0.98289 z m -5.11848,-6.5113702 c -0.02683,0.29126 0.02237,0.74673 0.08277,1.03185 0.07218,0.34143 0.141959,0.51851 0.418901,0.72423 0.507445,0.37656 0.831305,0.31316 1.221573,0.53151 0.18575,0.10394 0.421066,0.27815 0.48964,0.46233 0.06881,0.18407 -0.04523,0.38414 -0.186112,0.46269 0.246384,0.0367 0.522604,-0.24097 0.407352,-0.52609 -0.05678,-0.14039 -0.326988,-0.20283 -0.409878,-0.34443 -0.08265,-0.14148 -0.08253,-0.28729 -0.04355,-0.43105 0.07038,-0.25914 0.583117,-0.49445 0.764295,-0.69946 0.278747,-0.31519 0.385818,-0.57878 0.227858,-0.98481 -0.221722,-0.57024 -1.078291,-1.02788 -1.591029,-1.25164 -0.234835,-0.10251 -0.366448,-0.10973 -0.549552,-0.16458 0.374869,0.21967 0.770191,0.3946 0.959791,0.8858 0.158441,0.41024 0.02129,0.56483 0.02647,0.92201 0.0025,0.16554 0.220638,0.24831 0.317363,0.35298 0.08433,0.0909 0.07748,0.15844 0.01022,0.28392 -0.0075,-0.11309 -0.05582,-0.19767 -0.142802,-0.25926 -0.143523,-0.10165 -0.298114,-0.0798 -0.374628,-0.28849 -0.116094,-0.31712 0.114169,-0.61752 -0.144726,-0.97362 -0.19357,-0.26648 -0.451023,-0.56472 -0.798342,-0.57254 -0.164336,-0.004 -0.288009,0.0212 -0.463534,0.073 l -0.234113,-0.28163 -0.0054,-0.004 c -0.476165,-0.43467 -0.80195,-0.79281 -1.469881,-1.09153 -0.668052,-0.2986 -0.997205,-0.34383 -1.763065,-0.32675 -0.765859,0.0169 -1.525943,0.081 -2.41295,0.84598 -0.8870056,0.7649 -3.1731544,3.69408 -3.7275184,4.06486 -0.554364,0.37066 -0.6771948,0.49625 -1.3699088,0.49649 -0.692714,1.2e-4 -1.7738917,-0.97975 -1.816239,-2.20422 -0.042347,-1.2247 -0.059431,-1.65996 0.7918451,-3.13513 0.8512756,-1.47542 2.3935809,-1.92837 3.5377983,-2.08128 1.1442174,-0.15302 1.8318788,0.25 2.6783418,0.25192 0.846343,0.002 1.682821,-0.14412 1.929446,-0.81735 -0.120666,0.0719 -0.282475,0.15291 -0.737227,0.12909 -0.454872,-0.0238 -1.085508,-0.55039 -1.794945,-0.90325 -0.7097974,-0.35285 -1.499116,-0.39411 -2.5118404,-0.41336 -1.0126044,-0.0193 -2.2761637,0.0582 -3.5279333,0.73397 -1.2516493,0.676 -2.1061732,1.39301 -2.83221162,2.71552 -0.72603842,1.32263 -0.83455319,2.40248 -0.7174968,4.00398 0.11705643,1.60137 0.6110272,2.7923902 1.56203532,3.9645202 0.9510081,1.17213 1.9014147,1.74562 3.6151541,1.9588 l 0.3607935,-1.59127 -0.6441109,0.92418 0.016001,-1.028 -0.5826353,0.72303 -0.255527,-0.98049 -0.4719551,0.78608 -0.2343534,-1.09466 -0.6839318,0.55316 0.2165483,-0.90324 -0.9050517,0.10021 0.4156525,-0.62775 -0.8251695,0.01 0.4801358,-0.8381702 -0.7320536,-0.11621 0.583718,-0.76237 -0.8962695,-0.26563 0.742039,-0.71076 -0.7326552,-0.59708 0.5730109,-0.44584 -0.5359571,-0.71317 0.5716876,-0.66553 -0.2133001,-0.87894 0.4854292,-0.42311 0.1444858,-1.00454 0.5448597,-0.27358 0.4687068,-0.78403 0.866434,-0.092 0.4275626,-0.70522 0.8701634,0.0443 0.8224026,-0.44693 0.8528394,0.1985 0.9686934,-0.29246 0.7174968,0.16807 0.9363306,0.13762 0.904089,0.72291 -1.3867512,-0.4841 -0.6975264,0.33445 -0.5766198,-0.35189 -0.397005,0.26972 -0.702339,0.0703 -0.6299148,-0.0407 -0.4592028,0.56062 -0.9360905,0.01 -0.3339657,0.75515 -0.8322674,0.29198 -0.077837,0.86812 -0.5969516,0.4675 0.1988635,0.81687 -0.515385,0.84839 0.395321,0.74203 -0.3890651,0.67925 0.5176708,0.33781 -0.1174173,1.09164 0.7201435,0.18143 0.1621707,0.8097602 0.7846267,-0.0816 0.4874743,0.5548402 0.6024862,-0.5882902 c 1.098381,-0.54774 1.5507264,-0.85416 2.4068142,-1.7799 0.9744672,-1.05387 1.5329207,-2.02834 2.8308877,-2.75017 0.930917,-0.51743 1.690279,-0.70378 2.736088,-0.52308 0.981807,0.16963 1.310599,0.75864 2.03375,1.37905 0.07663,-0.13871 0.09215,-0.17565 0.218473,-0.27766 -0.0397,0.18009 -0.102619,0.36705 -0.11862,0.5404 z"
     id="path2"
     inkscape:connector-curvature="0"
     style="stroke-width:0.12030463;fill:#b5e853;fill-opacity:1"
     inkscape:export-filename="/home/jdiaz/Imágenes/gnu.png"
     inkscape:export-xdpi="34.955299"
     inkscape:export-ydpi="34.955299" />
</svg>
