<?xml version="1.0" encoding="UTF-8" standalone="no"?>
<svg
   xmlns:dc="http://purl.org/dc/elements/1.1/"
   xmlns:cc="http://creativecommons.org/ns#"
   xmlns:rdf="http://www.w3.org/1999/02/22-rdf-syntax-ns#"
   xmlns:svg="http://www.w3.org/2000/svg"
   xmlns="http://www.w3.org/2000/svg"
   version="1.1"
   id="svg2"
   height="300"
   width="599.44196">
  <defs
     id="defs4" />
  <metadata
     id="metadata7">
    <rdf:RDF>
      <cc:Work
         rdf:about="">
        <dc:format>image/svg+xml</dc:format>
        <dc:type
           rdf:resource="http://purl.org/dc/dcmitype/StillImage" />
        <dc:title></dc:title>
      </cc:Work>
    </rdf:RDF>
  </metadata>
  <g
     transform="translate(1286.9739,-743.51886)"
     id="layer1">
    <g
       transform="matrix(3.0864198,0,0,3.0864198,-23.20887,1342.2443)"
       id="_x31_-1" />
    <g
       transform="matrix(3.0864198,0,0,3.0864198,-23.20887,1342.2443)"
       id="_x32_-7" />
    <g
       transform="matrix(3.0864198,0,0,3.0864198,-23.20887,1342.2443)"
       id="Layer_3" />
    <g
       transform="matrix(3.0864198,0,0,3.0864198,-23.20887,1342.2443)"
       id="Layer_4" />
    <g
       transform="matrix(3.0864198,0,0,3.0864198,-23.20887,1342.2443)"
       id="Layer_5" />
    <g
       transform="matrix(3.0864198,0,0,3.0864198,-23.20887,1342.2443)"
       id="Layer_6" />
    <g
       transform="matrix(3.0864198,0,0,3.0864198,-23.20887,1342.2443)"
       id="Layer_7" />
    <g
       transform="matrix(3.0864198,0,0,3.0864198,-23.20887,1342.2443)"
       id="Layer_8" />
    <g
       transform="matrix(3.0864198,0,0,3.0864198,-23.20887,1342.2443)"
       id="Layer_9" />
    <g
       transform="matrix(3.0864198,0,0,3.0864198,-23.20887,1342.2443)"
       id="Layer_10" />
    <g
       transform="matrix(3.0864198,0,0,3.0864198,-23.20887,1342.2443)"
       id="Layer_11" />
    <g
       transform="matrix(3.0864198,0,0,3.0864198,-23.20887,1342.2443)"
       id="Layer_12" />
    <g
       transform="matrix(3.0864198,0,0,3.0864198,-23.20887,1342.2443)"
       id="Layer_13" />
    <g
       transform="matrix(3.0864198,0,0,3.0864198,-23.20887,1342.2443)"
       id="Layer_14" />
    <g
       transform="matrix(3.0864198,0,0,3.0864198,-23.20887,1342.2443)"
       id="Layer_15" />
    <g
       transform="matrix(3.0864198,0,0,3.0864198,-23.20887,1342.2443)"
       id="Layer_16" />
    <g
       transform="matrix(3.0864198,0,0,3.0864198,-23.20887,1342.2443)"
       id="Layer_17" />
    <g
       transform="matrix(3.0864198,0,0,3.0864198,-23.20887,1342.2443)"
       id="Layer_19" />
    <g
       transform="matrix(3.0864198,0,0,3.0864198,-23.20887,1342.2443)"
       id="Layer_20" />
    <g
       transform="matrix(3.0864198,0,0,3.0864198,-23.20887,1342.2443)"
       id="Layer_21" />
    <g
       transform="matrix(3.0864198,0,0,3.0864198,-23.20887,1342.2443)"
       id="Layer_22" />
    <g
       transform="matrix(3.0864198,0,0,3.0864198,-23.20887,1342.2443)"
       id="Layer_23" />
    <g
       transform="matrix(3.0864198,0,0,3.0864198,-23.20887,1342.2443)"
       id="Layer_24" />
    <g
       transform="matrix(3.0864198,0,0,3.0864198,-23.20887,1342.2443)"
       id="Layer_25" />
    <g
       transform="matrix(3.0864198,0,0,3.0864198,-23.20887,1342.2443)"
       id="Layer_26" />
    <g
       transform="matrix(3.0864198,0,0,3.0864198,-23.20887,1342.2443)"
       id="Layer_27" />
    <g
       transform="matrix(3.0864198,0,0,3.0864198,-23.20887,1342.2443)"
       id="Layer_28" />
    <g
       transform="matrix(3.0864198,0,0,3.0864198,-23.20887,1342.2443)"
       id="Layer_29" />
    <g
       transform="matrix(3.0864198,0,0,3.0864198,-23.20887,1342.2443)"
       id="Layer_30" />
    <g
       transform="matrix(3.0864198,0,0,3.0864198,-23.20887,1342.2443)"
       id="Layer_31" />
    <g
       transform="matrix(3.0864198,0,0,3.0864198,-23.20887,1342.2443)"
       id="Layer_32" />
    <g
       transform="matrix(3.0864198,0,0,3.0864198,-23.20887,1342.2443)"
       id="Layer_33" />
    <g
       transform="matrix(3.0864198,0,0,3.0864198,-23.20887,1342.2443)"
       id="Layer_34" />
    <g
       transform="matrix(3.0864198,0,0,3.0864198,-23.20887,1342.2443)"
       id="Layer_35" />
    <g
       transform="matrix(3.0864198,0,0,3.0864198,-23.20887,1342.2443)"
       id="Layer_36" />
    <g
       transform="matrix(3.0864198,0,0,3.0864198,-23.20887,1342.2443)"
       id="Layer_37" />
    <g
       transform="matrix(3.0864198,0,0,3.0864198,-23.20887,1342.2443)"
       id="Layer_38" />
    <g
       transform="matrix(3.0864198,0,0,3.0864198,-23.20887,1342.2443)"
       id="Layer_39" />
    <g
       transform="matrix(3.0864198,0,0,3.0864198,-23.20887,1342.2443)"
       id="Layer_40" />
    <g
       transform="matrix(3.0864198,0,0,3.0864198,-23.20887,1342.2443)"
       id="Layer_41" />
    <g
       transform="matrix(3.0864198,0,0,3.0864198,-23.20887,1342.2443)"
       id="Layer_42" />
    <g
       transform="matrix(3.0864198,0,0,3.0864198,-23.20887,1342.2443)"
       id="Layer_43" />
    <g
       transform="matrix(3.0864198,0,0,3.0864198,-23.20887,1342.2443)"
       id="Layer_44" />
    <g
       transform="matrix(3.0864198,0,0,3.0864198,-23.20887,1342.2443)"
       id="Layer_45" />
    <g
       transform="matrix(3.0864198,0,0,3.0864198,-23.20887,1342.2443)"
       id="Layer_46" />
    <g
       transform="matrix(3.0864198,0,0,3.0864198,-23.20887,1342.2443)"
       id="Layer_47" />
    <g
       transform="matrix(3.0864198,0,0,3.0864198,-23.20887,1342.2443)"
       id="Layer_48" />
    <g
       transform="matrix(3.0864198,0,0,3.0864198,-23.20887,1342.2443)"
       id="Layer_49" />
    <g
       transform="matrix(3.0864198,0,0,3.0864198,-23.20887,1342.2443)"
       id="Layer_50" />
    <g
       transform="matrix(3.0864198,0,0,3.0864198,-23.20887,1342.2443)"
       id="Layer_51" />
    <g
       transform="matrix(3.0864198,0,0,3.0864198,-23.20887,1342.2443)"
       id="Layer_52" />
    <g
       transform="matrix(3.0864198,0,0,3.0864198,-23.20887,1342.2443)"
       id="Layer_53" />
    <g
       transform="matrix(3.0864198,0,0,3.0864198,-23.20887,1342.2443)"
       id="Layer_57" />
    <g
       transform="matrix(3.0864198,0,0,3.0864198,-23.20887,1342.2443)"
       id="Layer_54" />
    <g
       transform="matrix(3.0864198,0,0,3.0864198,-23.20887,1342.2443)"
       id="Layer_55" />
    <g
       transform="matrix(3.0864198,0,0,3.0864198,-23.20887,1342.2443)"
       id="Layer_56" />
    <g
       transform="matrix(3.0864198,0,0,3.0864198,-23.20887,1342.2443)"
       id="Layer_59" />
    <g
       transform="matrix(3.0864198,0,0,3.0864198,-23.20887,1342.2443)"
       id="Layer_60" />
    <g
       transform="matrix(3.0864198,0,0,3.0864198,-23.20887,1342.2443)"
       id="Layer_61" />
    <g
       transform="matrix(3.0864198,0,0,3.0864198,-23.20887,1342.2443)"
       id="Layer_62" />
    <g
       transform="matrix(3.0864198,0,0,3.0864198,-23.20887,1342.2443)"
       id="Layer_63" />
    <g
       transform="matrix(3.0864198,0,0,3.0864198,-23.20887,1342.2443)"
       id="Layer_64" />
    <g
       transform="matrix(3.0864198,0,0,3.0864198,-23.20887,1342.2443)"
       id="Layer_65" />
    <g
       transform="matrix(3.0864198,0,0,3.0864198,-23.20887,1342.2443)"
       id="Layer_66" />
    <g
       transform="matrix(3.0864198,0,0,3.0864198,-23.20887,1342.2443)"
       id="Layer_67" />
    <g
       transform="matrix(3.0864198,0,0,3.0864198,-23.20887,1342.2443)"
       id="Layer_68" />
    <g
       transform="matrix(3.0864198,0,0,3.0864198,-23.20887,1342.2443)"
       id="Layer_69" />
    <g
       transform="matrix(3.0864198,0,0,3.0864198,-23.20887,1342.2443)"
       id="Layer_70" />
    <g
       transform="matrix(3.0864198,0,0,3.0864198,-23.20887,1342.2443)"
       id="Layer_71" />
    <g
       transform="matrix(3.0864198,0,0,3.0864198,-23.20887,1342.2443)"
       id="Layer_72" />
    <g
       transform="matrix(3.0864198,0,0,3.0864198,-23.20887,1342.2443)"
       id="Layer_73" />
    <g
       transform="matrix(3.0864198,0,0,3.0864198,-23.20887,1342.2443)"
       id="Layer_74" />
    <g
       transform="matrix(3.0864198,0,0,3.0864198,-23.20887,1342.2443)"
       id="Layer_75" />
    <g
       transform="matrix(3.0864198,0,0,3.0864198,-23.20887,1342.2443)"
       id="Layer_76" />
    <g
       transform="matrix(3.0864198,0,0,3.0864198,-23.20887,1342.2443)"
       id="Layer_77" />
    <g
       transform="matrix(3.0864198,0,0,3.0864198,-23.20887,1342.2443)"
       id="Layer_78" />
    <g
       transform="matrix(3.0864198,0,0,3.0864198,-23.20887,1342.2443)"
       id="Layer_79" />
    <g
       transform="matrix(3.0864198,0,0,3.0864198,-23.20887,1342.2443)"
       id="Layer_80" />
    <g
       transform="matrix(3.0864198,0,0,3.0864198,-23.20887,1342.2443)"
       id="Layer_81" />
    <g
       transform="matrix(3.0864198,0,0,3.0864198,-23.20887,1342.2443)"
       id="Layer_82" />
    <g
       transform="matrix(3.0864198,0,0,3.0864198,-23.20887,1342.2443)"
       id="Layer_83" />
    <g
       transform="matrix(3.0864198,0,0,3.0864198,-23.20887,1342.2443)"
       id="Layer_84" />
    <g
       transform="matrix(3.0864198,0,0,3.0864198,-23.20887,1342.2443)"
       id="Layer_85" />
    <g
       transform="matrix(3.0864198,0,0,3.0864198,-23.20887,1342.2443)"
       id="Layer_86" />
    <g
       transform="matrix(3.0864198,0,0,3.0864198,-23.20887,1342.2443)"
       id="Layer_87" />
    <g
       transform="matrix(3.0864198,0,0,3.0864198,-23.20887,1342.2443)"
       id="Layer_88" />
    <g
       transform="matrix(3.0864198,0,0,3.0864198,-23.20887,1342.2443)"
       id="Layer_89" />
    <g
       transform="matrix(3.0864198,0,0,3.0864198,-23.20887,1342.2443)"
       id="Layer_90" />
    <g
       transform="matrix(3.0864198,0,0,3.0864198,-23.20887,1342.2443)"
       id="Layer_91" />
    <g
       transform="matrix(3.0864198,0,0,3.0864198,-23.20887,1342.2443)"
       id="Layer_92" />
    <g
       transform="matrix(3.0864198,0,0,3.0864198,-23.20887,1342.2443)"
       id="Layer_94" />
    <g
       transform="matrix(3.0864198,0,0,3.0864198,-23.20887,1342.2443)"
       id="Layer_95" />
    <g
       transform="matrix(3.0864198,0,0,3.0864198,-23.20887,1342.2443)"
       id="Layer_96" />
    <g
       transform="matrix(3.0864198,0,0,3.0864198,-23.20887,1342.2443)"
       id="Layer_97" />
    <g
       transform="matrix(3.0864198,0,0,3.0864198,-23.20887,1342.2443)"
       id="Layer_98" />
    <g
       transform="matrix(3.0864198,0,0,3.0864198,-23.20887,1342.2443)"
       id="Layer_99" />
    <g
       transform="matrix(3.0864198,0,0,3.0864198,-23.20887,1342.2443)"
       id="Layer_100" />
    <g
       transform="matrix(3.0864198,0,0,3.0864198,-23.20887,1342.2443)"
       id="Layer_101" />
    <g
       transform="matrix(3.0864198,0,0,3.0864198,-23.20887,1342.2443)"
       id="text-2" />
    <g
       transform="matrix(1.9981377,0,0,1.9981377,1284.5772,-1041.5756)"
       id="g2210">
      <path
         style="fill:#b5e853;fill-opacity:1;stroke:#b5e853;stroke-width:2.13529158;stroke-linecap:butt;stroke-linejoin:miter;stroke-miterlimit:4;stroke-dasharray:none;stroke-opacity:1"
         d="m -1220.0654,931.04132 c 173.6936,0 173.6936,0 173.6936,0"
         id="path5587" />
      <path
         style="fill:#b5e853;fill-opacity:1;stroke-width:0.95125961;stroke-miterlimit:4;stroke-dasharray:11.41511495, 11.41511495;stroke-dashoffset:0"
         id="path6013"
         d="m -1194.5276,995.95376 h -51.2241 v 33.77704 h 51.2241 z m -5.1937,28.58474 h -40.8382 v -23.3939 h 40.8382 z" />
      <polygon
         style="fill:#b5e853;fill-opacity:1;stroke-width:0.648;stroke-miterlimit:4;stroke-dasharray:7.77599988, 7.77599988;stroke-dashoffset:0"
         id="polygon6015"
         points="47.467,39.689 29.802,39.689 20.287,39.689 2.533,39.689 2.533,41.2 47.467,41.2 "
         transform="matrix(1.4679932,0,0,1.4679932,-1256.8439,983.03542)" />
      <path
         style="fill:#b5e853;fill-opacity:1;stroke-width:0.95125961;stroke-miterlimit:4;stroke-dasharray:11.41511495, 11.41511495;stroke-dashoffset:0"
         id="path6017"
         d="m -1194.5364,1031.3001 h -24.8781 -1.4577 -24.8795 l -6.9774,9.3218 h 65.1715 z m -7.3649,1.7117 h 2.8156 v 1.4063 h -2.8156 z m 4.5566,2.2445 v 1.4064 h -2.7892 v -1.4064 z m -3.4894,0 v 1.4064 h -2.8156 v -1.4064 z m -4.9192,-2.2445 h 2.8156 v 1.4063 h -2.8156 z m 1.0687,2.2445 v 1.4064 h -2.8156 v -1.4064 z m -5.0059,-2.2445 h 2.8156 v 1.4063 h -2.8156 z m 1.0687,2.2445 v 1.4064 h -2.8156 v -1.4064 z m -5.0998,-2.2445 h 2.8156 v 1.4063 h -2.8156 z m -3.9372,0 h 2.8157 v 1.4063 h -2.8157 z m 1.0673,2.2445 v 1.4064 h -2.8156 v -1.4064 z m -4.9193,-2.2445 h 2.8156 v 1.4063 h -2.8156 z m 1.0673,2.2445 v 1.4064 h -2.8157 v -1.4064 z m -5.0044,-2.2445 h 2.8156 v 1.4063 h -2.8156 z m 1.0687,2.2445 v 1.4064 h -2.8156 v -1.4064 z m -5.091,-2.2445 h 2.8156 v 1.4063 h -2.8156 z m 1.0687,2.2445 v 1.4064 h -2.8156 v -1.4064 z m -5.0044,-2.2445 h 2.8156 v 1.4063 h -2.8156 z m 1.0672,2.2445 v 1.4064 h -2.8156 v -1.4064 z m -4.9192,-2.2445 h 2.8156 v 1.4063 h -2.8156 z m 1.0687,2.2445 v 1.4064 h -2.8156 v -1.4064 z m -5.0059,-2.2445 h 2.8156 v 1.4063 h -2.8156 z m -1.7484,2.2445 h 2.8171 v 1.4064 h -2.8171 z m 0.5476,3.532 h -2.8156 v -1.4063 h 2.8156 z m 3.598,0 h -2.8156 v -1.4063 h 2.8156 z m 3.9372,0 h -2.8156 v -1.4063 h 2.8156 z m 3.852,0 h -2.8171 v -1.4063 h 2.8156 v 1.4063 z m 3.9357,0 h -2.8156 v -1.4063 h 2.8156 z m 11.5649,0 h -10.3582 v -1.4063 h 10.3582 z m 0.038,-3.532 h 2.8156 v 1.4064 h -2.8156 z m 4.1442,3.532 h -2.8156 v -1.4063 h 2.8156 z m 4.0325,0 h -2.8156 v -1.4063 h 2.8156 z m 3.9372,0 h -2.8156 v -1.4063 h 2.8156 z m 3.852,0 h -2.8156 v -1.4063 h 2.8156 z m 3.5555,0 h -2.8156 v -1.4063 h 2.8156 z" />
      <path
         style="fill:#b5e853;fill-opacity:1;stroke-width:0.47562978"
         d="m -1055.303,911.24942 v 29.39986 h 45.2293 v -29.39986 z"
         id="rect4214" />
      <ellipse
         id="ellipse4202"
         ry="0.39801654"
         rx="0.79151016"
         cy="910.35846"
         cx="-993.71857"
         style="fill:#b5e853;fill-opacity:1;stroke-width:2.26145768" />
      <path
         id="path4206"
         d="m -996.9072,932.91878 c -1.0742,0.61737 -1.86118,1.25963 -2.44916,1.90867 -0.26685,-0.14021 -0.56763,-0.22841 -0.89554,-0.23746 0.104,-0.84804 0.43647,-1.84082 1.23928,-3.14116 -0.87292,0 -1.74358,0 -2.61428,0 -0.1809,1.54457 -0.061,2.61877 0.199,3.45777 -0.2691,0.16961 -0.4952,0.39802 -0.6626,0.66713 -0.6829,-0.49752 -1.3727,-1.19631 -2.0873,-2.18231 -0.3596,0.80056 -0.7146,1.33878 -1.3162,1.79786 1.2371,0.92493 2.2298,1.36592 3.096,1.56267 0.014,0.32791 0.1,0.62642 0.242,0.89553 -0.7916,0.33696 -1.825,0.54275 -3.3402,0.50205 0.7214,0.92041 1.3704,1.59659 1.7617,2.2705 1.0741,-0.61511 1.8611,-1.26189 2.4446,-1.91093 0.2691,0.14021 0.5699,0.23067 0.8978,0.23971 -0.1018,0.84805 -0.4365,1.84309 -1.237,3.14343 0.8706,0 1.74356,0 2.61422,0 0.17865,-1.54684 0.0588,-2.61877 -0.20127,-3.45551 0.26911,-0.17186 0.49752,-0.40027 0.66261,-0.66939 0.68522,0.49978 1.3727,1.20084 2.08958,2.18457 0.35732,-0.79829 0.71236,-1.33652 1.31617,-1.80012 -1.23928,-0.92268 -2.23206,-1.36592 -3.09593,-1.56267 -0.0136,-0.32565 -0.0995,-0.62642 -0.2465,-0.89553 0.79377,-0.3347 1.82726,-0.54049 3.3447,-0.49979 -0.72367,-0.92267 -1.37271,-1.59885 -1.76168,-2.27502 z m -3.4125,4.40305 c -0.3596,0 -0.6513,-0.29172 -0.6513,-0.65355 0,-0.36184 0.2917,-0.65357 0.6513,-0.65357 0.36179,0 0.65352,0.29173 0.65352,0.65357 -0.002,0.36409 -0.29399,0.65355 -0.65352,0.65355 z"
         style="fill:#b5e853;fill-opacity:1;stroke:#b5e853;stroke-width:0.47562978;stroke-opacity:1" />
      <path
         id="path4210"
         d="m -988.29557,922.40752 1.30938,-15.07261 c 0.0769,-0.8684 -0.5744,-1.58076 -1.44733,-1.58076 h -0.36636 l 0.15831,-2.38358 c 0.11533,-1.74132 -1.21667,-3.16378 -2.96251,-3.16378 h -17.43582 c -1.7436,0 -3.0711,1.42472 -2.9603,3.16378 l 0.1561,2.38358 h -0.3709 c -0.8707,0 -1.522,0.71009 -1.4496,1.58076 l 0.1447,1.65764 h 4.4755 v -1.89962 h 17.44032 v 4.75811 h -16.21012 v 31.06338 h -4.0752 l -0.113,1.69157 c -0.1154,1.74132 1.2166,3.16152 2.9602,3.16152 h 17.44038 c 1.74358,0 3.07558,-1.42246 2.96251,-3.16152 l -0.1583,-2.38584 h 0.37088 c 0.87066,0 1.52196,-0.7101 1.44733,-1.58076 l -1.30938,-15.07035 c -0.0792,-0.87292 -0.0792,-2.29086 -0.007,-3.16152 z m -7.75228,-18.33363 c -0.49752,0 -0.90232,-0.40254 -0.90232,-0.90233 0,-0.49752 0.40707,-0.90232 0.90232,-0.90232 0.49979,0 0.90233,0.4048 0.90233,0.90232 0,0.50205 -0.40707,0.90233 -0.90233,0.90233 z m 3.12307,0.28494 c -0.65582,0 -1.185,-0.53144 -1.185,-1.18953 0,-0.65808 0.52918,-1.18953 1.185,-1.18953 0.65583,0 1.18953,0.53145 1.18953,1.18953 0,0.65809 -0.5337,1.18953 -1.18953,1.18953 z m -5.41166,11.45202 c 0,-0.21936 0.17639,-0.39575 0.39575,-0.39575 0.21936,0 0.39576,0.17865 0.39576,0.39575 v 12.68678 c 0,0.2171 -0.1764,0.39349 -0.39576,0.39349 -0.21936,0 -0.39575,-0.17639 -0.39575,-0.39349 z m -4.75806,0 c 0,-0.21936 0.1763,-0.39575 0.3934,-0.39575 0.2217,0 0.3981,0.17865 0.3981,0.39575 v 12.68678 c 0,0.2171 -0.1764,0.39349 -0.3981,0.39349 -0.2171,0 -0.3934,-0.17639 -0.3934,-0.39349 z m 2.7748,27.20081 c -3.5008,0 -6.3434,-2.83587 -6.3434,-6.34112 0,-3.503 2.8426,-6.34113 6.3434,-6.34113 3.50296,0 6.34335,2.83813 6.34335,6.34113 -0.002,3.50525 -2.84265,6.34112 -6.34335,6.34112 z"
         style="fill:#b5e853;fill-opacity:1;stroke-width:0.47562978" />
      <polygon
         id="polygon4218"
         points="14.893,35.516 24.893,35.516 22.893,33.516 16.893,33.516 "
         style="fill:#b5e853;fill-opacity:1;stroke:#b5e853;stroke-opacity:1"
         transform="matrix(2.2614577,0,0,2.2614577,-1077.6752,867.45184)" />
      <path
         style="fill:#b5e853;fill-opacity:1;stroke-width:1.35894215;stroke-miterlimit:4;stroke-dasharray:16.3073064, 16.3073064;stroke-dashoffset:0"
         d="m -1123.1563,995.95376 h -21.205 c -1.7666,0 -3.2125,1.44456 -3.2125,3.21254 v 41.1365 c 0,1.768 1.4459,3.2139 3.2125,3.2139 h 21.205 c 1.7666,0 3.2125,-1.4445 3.2125,-3.2125 v -41.1379 c 0,-1.76798 -1.4459,-3.21254 -3.2125,-3.21254 z m -13.9944,2.31564 h 6.7838 c 0.2147,0 0.3887,0.17394 0.3887,0.39001 0,0.21472 -0.174,0.38866 -0.3887,0.38866 h -6.7838 c -0.2147,0 -0.3887,-0.17394 -0.3887,-0.38866 0,-0.21607 0.174,-0.39001 0.3887,-0.39001 z m 3.3919,43.6411 c -0.8874,0 -1.6063,-0.7189 -1.6063,-1.6063 0,-0.8874 0.7189,-1.6063 1.6063,-1.6063 0.8874,0 1.6063,0.7189 1.6063,1.6063 0,0.8874 -0.7189,1.6063 -1.6063,1.6063 z m 11.5796,-4.3391 h -23.1591 v -36.523 h 23.1591 z"
         id="path6283" />
      <path
         id="path9245"
         d="m -1141.1213,1016.146 c -0.3511,0 -0.6494,0.1224 -0.8943,0.3675 -0.245,0.2451 -0.3675,0.5391 -0.3675,0.882 v 5.2679 c 0,0.351 0.1225,0.649 0.3675,0.8941 0.2449,0.2451 0.5431,0.3675 0.8942,0.3675 0.3512,0 0.6473,-0.1224 0.8881,-0.3675 0.2411,-0.2451 0.3615,-0.5431 0.3615,-0.8941 v -5.2679 c 0,-0.3431 -0.1225,-0.637 -0.3675,-0.882 -0.2449,-0.2449 -0.539,-0.3675 -0.882,-0.3675 z"
         style="fill:#b5e853;fill-opacity:1;stroke-width:0.15036096" />
      <path
         id="path9247"
         d="m -1139.3815,1024.5377 c 0,0.3756 0.1307,0.694 0.392,0.9554 0.2614,0.2611 0.5798,0.3918 0.9556,0.3918 h 0.9065 l 0.012,2.7808 c 0,0.3512 0.1226,0.6491 0.3675,0.8942 0.2449,0.2451 0.5391,0.3675 0.882,0.3675 0.3513,0 0.6493,-0.1224 0.8944,-0.3675 0.2451,-0.2451 0.3675,-0.543 0.3675,-0.8942 v -2.7808 h 1.6905 v 2.7808 c 0,0.3512 0.1224,0.6491 0.3673,0.8942 0.2452,0.2451 0.5432,0.3675 0.8945,0.3675 0.3509,0 0.6489,-0.1224 0.894,-0.3675 0.245,-0.2451 0.3672,-0.543 0.3672,-0.8942 v -2.7808 h 0.9189 c 0.3673,0 0.6819,-0.1305 0.9432,-0.3918 0.2613,-0.2614 0.392,-0.5798 0.392,-0.9554 v -8.1589 h -11.2454 z"
         style="fill:#b5e853;fill-opacity:1;stroke-width:0.15036096" />
      <path
         id="path9249"
         d="m -1130.9779,1011.4175 0.8695,-1.6048 c 0.057,-0.1062 0.037,-0.1878 -0.061,-0.245 -0.1062,-0.049 -0.1878,-0.024 -0.2449,0.074 l -0.8821,1.6169 c -0.7758,-0.3429 -1.5965,-0.5145 -2.4623,-0.5145 -0.8656,0 -1.6864,0.1716 -2.4623,0.5145 l -0.882,-1.6169 c -0.057,-0.098 -0.1388,-0.1226 -0.2449,-0.074 -0.098,0.057 -0.1184,0.1388 -0.061,0.245 l 0.8698,1.6048 c -0.8822,0.4491 -1.5843,1.076 -2.1072,1.8804 -0.5226,0.8044 -0.7839,1.6845 -0.7839,2.6399 h 11.3316 c 0,-0.9554 -0.2613,-1.8355 -0.7841,-2.6399 -0.5228,-0.8044 -1.2208,-1.4313 -2.0948,-1.8804 z m -5.0289,2.3336 c -0.094,0.094 -0.2061,0.1409 -0.3368,0.1409 -0.1306,0 -0.2409,-0.047 -0.3308,-0.1409 -0.09,-0.094 -0.1347,-0.2062 -0.1347,-0.3368 0,-0.1307 0.045,-0.243 0.1347,-0.337 0.09,-0.094 0.2002,-0.1409 0.3308,-0.1409 0.1305,0 0.2429,0.047 0.3368,0.1409 0.094,0.094 0.1409,0.2063 0.1409,0.337 0,0.1306 -0.047,0.2428 -0.1409,0.3368 z m 5.1637,0 c -0.09,0.094 -0.2002,0.1409 -0.3309,0.1409 -0.1307,0 -0.2428,-0.047 -0.3367,-0.1409 -0.094,-0.094 -0.1409,-0.2062 -0.1409,-0.3368 0,-0.1307 0.047,-0.243 0.1409,-0.337 0.094,-0.094 0.206,-0.1409 0.3367,-0.1409 0.1307,0 0.241,0.047 0.3309,0.1409 0.09,0.094 0.1348,0.2063 0.1348,0.337 0,0.1306 -0.045,0.2428 -0.1348,0.3368 z"
         style="fill:#b5e853;fill-opacity:1;stroke:#b5e853;stroke-width:0.15036096;stroke-opacity:1" />
      <path
         id="path9251"
         d="m -1125.5021,1016.5074 c -0.2449,-0.2409 -0.543,-0.3614 -0.8942,-0.3614 -0.343,0 -0.6369,0.1205 -0.8819,0.3614 -0.245,0.241 -0.3676,0.537 -0.3676,0.8881 v 5.2679 c 0,0.351 0.1226,0.649 0.3676,0.8941 0.245,0.2451 0.5389,0.3675 0.8819,0.3675 0.3512,0 0.6493,-0.1224 0.8942,-0.3675 0.2451,-0.2451 0.3676,-0.5431 0.3676,-0.8941 v -5.2679 c 0,-0.3511 -0.1225,-0.6471 -0.3676,-0.8881 z"
         style="fill:#b5e853;fill-opacity:1;stroke-width:0.15036096" />
      <path
         style="fill:#b5e853;fill-opacity:1;stroke-width:0.21352915"
         id="path4050"
         d="m -1244.2677,907.81774 c 7.0148,0 12.7283,5.6636 12.8117,12.65334 -0.033,0.25864 -0.058,0.51714 -0.067,0.78405 l -0.1085,3.13622 2.9694,1.03428 c 3.4366,1.19683 5.747,4.42072 5.747,8.01561 0,4.71272 -3.8286,8.54117 -8.5412,8.54117 h -42.7058 c -4.7085,0 -8.5412,-3.82858 -8.5412,-8.54117 0,-4.66267 3.7619,-8.46616 8.4077,-8.54116 0.2002,0.0292 0.4088,0.0542 0.6173,0.0667 l 3.2447,0.21273 1.0676,-3.06535 c 1.2011,-3.44475 4.4207,-5.75527 8.0156,-5.75527 0.4171,0 0.8759,0.05 1.4931,0.15854 l 2.9902,0.53796 1.4889,-2.64829 c 2.2854,-4.06199 6.5393,-6.58938 11.1102,-6.58938 m 0,-4.27058 c -6.3976,0 -11.9068,3.56166 -14.8345,8.76644 -0.7298,-0.12932 -1.4764,-0.22528 -2.2479,-0.22528 -5.5968,0 -10.3053,3.61171 -12.0485,8.6163 -0.2543,-0.0167 -0.5004,-0.0751 -0.7632,-0.0751 -7.0732,0 -12.8118,5.7386 -12.8118,12.81175 0,7.07315 5.7386,12.81175 12.8118,12.81175 h 42.7058 c 7.0732,0 12.8118,-5.7386 12.8118,-12.81175 0,-5.59686 -3.6118,-10.30946 -8.6163,-12.05279 0.01,-0.2585 0.075,-0.50032 0.075,-0.75896 0,-9.43359 -7.6486,-17.08233 -17.0823,-17.08233 z" />
      <path
         style="fill:#b5e853;fill-opacity:1;stroke-width:2.73317313"
         d="m -1103.1004,920.91855 h -11.7308 l -0.8965,-20.4988 c 0,-0.56576 -0.4591,-1.02494 -1.0249,-1.02494 -0.5685,0 -1.0249,0.45918 -1.0249,1.02494 l -0.8965,20.4988 h -50.0225 c -0.7517,0 -1.3666,0.6177 -1.3666,1.36659 v 10.93269 c 0,0.74889 0.6149,1.36659 1.3666,1.36659 h 4.0997 v 2.04988 h 8.1995 v -2.04988 h 41.0824 v 2.04988 h 8.1995 v -2.04988 h 4.015 c 0.7516,0 1.3666,-0.6177 1.3666,-1.36659 v -10.93269 c 0,-0.74889 -0.615,-1.36659 -1.3666,-1.36659 z m -21.6659,8.73522 c -1.055,0 -1.905,-0.85275 -1.905,-1.90229 0,-1.055 0.8528,-1.90502 1.905,-1.90502 1.0496,0 1.9023,0.85275 1.9023,1.90502 0,1.05228 -0.8527,1.90229 -1.9023,1.90229 z m 5.081,0 c -1.0577,0 -1.905,-0.85275 -1.905,-1.90229 0,-1.055 0.8527,-1.90502 1.905,-1.90502 1.0523,0 1.8996,0.85275 1.8996,1.90502 0,1.05228 -0.8501,1.90229 -1.8996,1.90229 z m 5.0728,0 c -1.0496,0 -1.905,-0.85275 -1.905,-1.90229 0,-1.055 0.8554,-1.90502 1.905,-1.90502 1.0523,0 1.9023,0.85275 1.9023,1.90502 0,1.05228 -0.85,1.90229 -1.9023,1.90229 z m 5.0782,0 c -1.055,0 -1.905,-0.85275 -1.905,-1.90229 0,-1.055 0.8527,-1.90502 1.905,-1.90502 1.0468,0 1.9023,0.85275 1.9023,1.90502 0,1.05228 -0.8555,1.90229 -1.9023,1.90229 z"
         id="path4155" />
      <path
         style="fill:#b5e853;fill-opacity:1;stroke-width:2.73317313"
         d="m -1122.7601,906.24141 c -1.6809,-1.52238 -2.6512,-3.69525 -2.6512,-5.96378 0,-2.26854 0.9676,-4.44141 2.6567,-5.96379 l -0.8473,-0.93474 c -1.9488,1.76016 -3.0666,4.27195 -3.0666,6.89579 0,2.62112 1.1151,5.13837 3.0666,6.8958 z"
         id="path4159" />
      <path
         style="fill:#b5e853;fill-opacity:1;stroke-width:2.73317313"
         d="m -1122.0194,905.42146 0.8445,-0.93475 c -1.1889,-1.07687 -1.8695,-2.60744 -1.8695,-4.20908 0,-1.59891 0.6806,-3.13495 1.8695,-4.20909 l -0.8445,-0.93474 c -1.4541,1.30919 -2.285,3.18688 -2.285,5.14383 0,1.95695 0.8309,3.82917 2.285,5.14383 z"
         id="path4163" />
      <path
         style="fill:#b5e853;fill-opacity:1;stroke-width:2.73317313"
         d="m -1120.3331,903.54924 0.8473,-0.93475 c -1.3201,-1.19166 -1.3201,-3.48206 0,-4.67373 l -0.8473,-0.93474 c -0.9238,0.83635 -1.4513,2.02801 -1.4513,3.27434 0,1.24086 0.5275,2.43526 1.4513,3.26888 z"
         id="path4167" />
      <path
         style="fill:#b5e853;fill-opacity:1;stroke-width:2.73317313"
         d="m -1110.7451,906.24141 0.8418,0.93201 c 1.9515,-1.75743 3.0667,-4.27195 3.0667,-6.89579 0,-2.62385 -1.1152,-5.13563 -3.0667,-6.8958 l -0.8445,0.93475 c 1.6836,1.51964 2.6512,3.69525 2.6512,5.96378 0,2.2658 -0.9676,4.43867 -2.6485,5.96105 z"
         id="path4171" />
      <path
         style="fill:#b5e853;fill-opacity:1;stroke-width:2.73317313"
         d="m -1112.3303,904.48671 0.8445,0.93475 c 1.4513,-1.31466 2.285,-3.18688 2.285,-5.14383 0,-1.95695 -0.8337,-3.83191 -2.285,-5.14383 l -0.8445,0.93474 c 1.1916,1.07414 1.8695,2.61018 1.8695,4.20909 0,1.60164 -0.6779,3.13221 -1.8695,4.20908 z"
         id="path4175" />
      <path
         style="fill:#b5e853;fill-opacity:1;stroke-width:2.73317313"
         d="m -1113.1749,903.54924 c 0.9238,-0.83089 1.4513,-2.02802 1.4513,-3.27161 0,-1.24633 -0.5275,-2.43799 -1.4513,-3.27434 l -0.8473,0.93474 c 1.3229,1.19166 1.3229,3.48206 0,4.67373 z"
         id="path4179" />
      <path
         style="fill:#b5e853;fill-opacity:1;stroke-width:0.1219563"
         d="m -1080.3549,1041.6718 v -1.845 l 0.5132,0.082 c 1.5945,0.255 2.8397,1.5002 3.0947,3.0947 l 0.082,0.5131 h -1.8449 -1.845 z m 7.3153,1.5095 c 0,-0.7097 -0.3793,-2.081 -0.8084,-2.9574 -0.6171,-1.2602 -1.9538,-2.597 -3.214,-3.214 -0.8764,-0.4291 -2.2477,-0.804 -2.9575,-0.8085 h -0.3354 v -1.8462 -1.8461 l 0.9153,0.083 c 5.2997,0.4802 9.5313,4.7118 10.0115,10.0115 l 0.083,0.9153 h -1.8462 -1.8462 v -0.3354 z m 7.2707,-0.6707 c -0.2239,-2.6878 -0.9804,-4.8773 -2.4571,-7.1114 -2.4596,-3.7213 -6.5248,-6.0854 -11.1227,-6.4685 l -1.0062,-0.084 v -1.8118 -1.8118 h 0.3707 c 0.7739,0 2.782,0.2675 3.8368,0.5112 6.0717,1.4025 11.112,6.0217 13.1487,12.0503 0.4814,1.4247 0.9329,3.9979 0.9363,5.3356 v 0.3963 h -1.8119 -1.8118 z m 7.3105,-0.1829 c -0.4036,-5.6648 -2.5393,-10.4308 -6.408,-14.2994 -3.8731,-3.8732 -8.65,-6.0143 -14.2994,-6.4095 l -1.1891,-0.083 v -12.7909 -12.79094 h 31.2209 31.2208 v 23.78144 23.7815 h -20.2303 -20.2302 z"
         id="path1519" />
      <g
         id="g2181"
         style="fill:#b5e853;fill-opacity:1;stroke:#b5e853;stroke-opacity:1">
        <path
           id="path1697"
           d="m -1044.6739,988.88568 -89.3445,-51.58309"
           style="fill:#b5e853;fill-opacity:1;stroke:#b5e853;stroke-width:1.36621869;stroke-linecap:butt;stroke-linejoin:miter;stroke-miterlimit:4;stroke-dasharray:2.73243742, 8.19731227;stroke-dashoffset:0;stroke-opacity:1" />
        <path
           style="fill:#b5e853;fill-opacity:1;stroke:#b5e853;stroke-width:1.36621869;stroke-linecap:butt;stroke-linejoin:miter;stroke-miterlimit:4;stroke-dasharray:2.73243742, 8.19731227;stroke-dashoffset:0;stroke-opacity:1"
           d="m -1224.046,988.88568 89.3445,-51.58309"
           id="path2175" />
      </g>
      <path
         style="fill:#b5e853;fill-opacity:1;stroke:#b5e853;stroke-width:1;stroke-linecap:butt;stroke-linejoin:miter;stroke-miterlimit:4;stroke-dasharray:4, 4;stroke-dashoffset:0;stroke-opacity:1"
         d="m -1134.36,938.08402 c 0,49.8161 0,49.8161 0,49.8161"
         id="path2177" />
    </g>
  </g>
</svg>
