<?xml version="1.0" encoding="UTF-8" standalone="no"?>
<!-- Generator: Adobe Illustrator 16.0.0, SVG Export Plug-In . SVG Version: 6.00 Build 0)  -->

<svg
   xmlns:dc="http://purl.org/dc/elements/1.1/"
   xmlns:cc="http://creativecommons.org/ns#"
   xmlns:rdf="http://www.w3.org/1999/02/22-rdf-syntax-ns#"
   xmlns:svg="http://www.w3.org/2000/svg"
   xmlns="http://www.w3.org/2000/svg"
   xmlns:sodipodi="http://sodipodi.sourceforge.net/DTD/sodipodi-0.dtd"
   xmlns:inkscape="http://www.inkscape.org/namespaces/inkscape"
   version="1.1"
   id="Capa_1"
   x="0px"
   y="0px"
   width="276.28152"
   height="300"
   viewBox="0 0 276.28153 300.00001"
   xml:space="preserve"
   sodipodi:docname="laboratorio.svg"
   inkscape:version="0.92.3 (2405546, 2018-03-11)"><metadata
   id="metadata41"><rdf:RDF><cc:Work
       rdf:about=""><dc:format>image/svg+xml</dc:format><dc:type
         rdf:resource="http://purl.org/dc/dcmitype/StillImage" /><dc:title></dc:title></cc:Work></rdf:RDF></metadata><defs
   id="defs39" /><sodipodi:namedview
   pagecolor="#ffffff"
   bordercolor="#666666"
   borderopacity="1"
   objecttolerance="10"
   gridtolerance="10"
   guidetolerance="10"
   inkscape:pageopacity="0"
   inkscape:pageshadow="2"
   inkscape:window-width="1680"
   inkscape:window-height="986"
   id="namedview37"
   showgrid="false"
   fit-margin-top="0"
   fit-margin-left="0"
   fit-margin-right="0"
   fit-margin-bottom="0"
   inkscape:zoom="1.502"
   inkscape:cx="-65.371254"
   inkscape:cy="247.33688"
   inkscape:window-x="1366"
   inkscape:window-y="27"
   inkscape:window-maximized="1"
   inkscape:current-layer="g4" />
<g
   id="g4"
   transform="matrix(10.955062,0,0,10.955062,-19.761225,-199.99998)">
	<path
   d="m 26.631338,40.8056 -7.1844,-13.291801 v -7.9182 c 0,-0.7452 -0.6234,-1.3392 -1.368,-1.3392 h -7.3332 c -0.7452,0 -1.3584001,0.594 -1.3584001,1.3392 v 7.9182 L 2.1969377,40.8056 c -0.5484,1.0134 -0.5208,2.244 0.069,3.2346 0.5898,0.9894 1.6596,1.6008 2.8116001,1.6008 H 23.746538 c 1.152,0 2.2242,-0.6114 2.814,-1.6008 0.5892,-0.9906 0.6192,-2.2212 0.0708,-3.2346 z m -11.0316,-5.5608 c 0.6438,0 1.1652,0.5214 1.1652,1.1652 0,0.6432 -0.5226,1.1652 -1.1652,1.1652 -0.6432,0 -1.1652,-0.522 -1.1652,-1.1652 0,-0.642 0.5214,-1.1652 1.1652,-1.1652 z m -3.2766,-7.006201 c 0.6438,0 1.1652,0.522 1.1652,1.165801 0,0.6432 -0.5214,1.1652 -1.1652,1.1652 -0.6438,0 -1.1652,-0.522 -1.1652,-1.1652 6e-4,-0.643801 0.5214,-1.165801 1.1652,-1.165801 z m 0,4.068001 c 1.0428,0 1.8888,0.846 1.8888,1.8882 0,1.0428 -0.846,1.8882 -1.8888,1.8882 -1.0434,0 -1.8888,-0.8454 -1.8888,-1.8882 0,-1.0428 0.8454,-1.8882 1.8888,-1.8882 z m 10.8468,9.687 c -0.2424,0.4128 -0.6858,0.6564 -1.1628,0.6564 H 6.8169378 c -0.4776,0 -0.9204,-0.2436 -1.1628,-0.6564 -0.2424,-0.4128 -0.249,-0.9168 -0.0168,-1.3356 l 1.8258001,-3.282 c 0.2604,-0.4692 0.774,-0.738 1.308,-0.687 2.4246001,0.231 5.1498001,2.3052 7.5852001,2.2128 1.3044,-0.0498 2.5152,-0.525 3.6684,-1.1604 0.651,-0.36 1.47,-0.1242 1.8312,0.5262 l 1.3314,2.3892 c 0.231,0.4194 0.225,0.9246 -0.0174,1.3368 z"
   id="path2"
   inkscape:connector-curvature="0"
   style="fill:#b5e853;fill-opacity:1;stroke-width:0.60000002"
   inkscape:export-filename="/home/jdiaz/Imágenes/laboratorio.png"
   inkscape:export-xdpi="96"
   inkscape:export-ydpi="96" />
</g>
<g
   id="g6"
   transform="translate(-1.8038444,254.35902)">
</g>
<g
   id="g8"
   transform="translate(-1.8038444,254.35902)">
</g>
<g
   id="g10"
   transform="translate(-1.8038444,254.35902)">
</g>
<g
   id="g12"
   transform="translate(-1.8038444,254.35902)">
</g>
<g
   id="g14"
   transform="translate(-1.8038444,254.35902)">
</g>
<g
   id="g16"
   transform="translate(-1.8038444,254.35902)">
</g>
<g
   id="g18"
   transform="translate(-1.8038444,254.35902)">
</g>
<g
   id="g20"
   transform="translate(-1.8038444,254.35902)">
</g>
<g
   id="g22"
   transform="translate(-1.8038444,254.35902)">
</g>
<g
   id="g24"
   transform="translate(-1.8038444,254.35902)">
</g>
<g
   id="g26"
   transform="translate(-1.8038444,254.35902)">
</g>
<g
   id="g28"
   transform="translate(-1.8038444,254.35902)">
</g>
<g
   id="g30"
   transform="translate(-1.8038444,254.35902)">
</g>
<g
   id="g32"
   transform="translate(-1.8038444,254.35902)">
</g>
<g
   id="g34"
   transform="translate(-1.8038444,254.35902)">
</g>
</svg>