<?xml version="1.0" encoding="UTF-8" standalone="no"?>
<!-- Generator: Adobe Illustrator 16.0.0, SVG Export Plug-In . SVG Version: 6.00 Build 0)  -->

<svg
   xmlns:dc="http://purl.org/dc/elements/1.1/"
   xmlns:cc="http://creativecommons.org/ns#"
   xmlns:rdf="http://www.w3.org/1999/02/22-rdf-syntax-ns#"
   xmlns:svg="http://www.w3.org/2000/svg"
   xmlns="http://www.w3.org/2000/svg"
   xmlns:sodipodi="http://sodipodi.sourceforge.net/DTD/sodipodi-0.dtd"
   xmlns:inkscape="http://www.inkscape.org/namespaces/inkscape"
   version="1.1"
   id="Capa_1"
   x="0px"
   y="0px"
   width="320.46127"
   height="300"
   viewBox="0 0 320.46128 300"
   xml:space="preserve"
   sodipodi:docname="planeacion_red.svg"
   inkscape:version="0.92.3 (2405546, 2018-03-11)"><metadata
   id="metadata56"><rdf:RDF><cc:Work
       rdf:about=""><dc:format>image/svg+xml</dc:format><dc:type
         rdf:resource="http://purl.org/dc/dcmitype/StillImage" /><dc:title></dc:title></cc:Work></rdf:RDF></metadata><defs
   id="defs54" /><sodipodi:namedview
   pagecolor="#ffffff"
   bordercolor="#666666"
   borderopacity="1"
   objecttolerance="10"
   gridtolerance="10"
   guidetolerance="10"
   inkscape:pageopacity="0"
   inkscape:pageshadow="2"
   inkscape:window-width="1366"
   inkscape:window-height="731"
   id="namedview52"
   showgrid="false"
   fit-margin-top="0"
   fit-margin-left="0"
   fit-margin-right="0"
   fit-margin-bottom="0"
   inkscape:zoom="4.8437084"
   inkscape:cx="24.3615"
   inkscape:cy="18.159058"
   inkscape:window-x="0"
   inkscape:window-y="0"
   inkscape:window-maximized="1"
   inkscape:current-layer="Capa_1" />
<g
   id="g19"
   style="fill:#b5e853;fill-opacity:1"
   transform="matrix(6.5770723,0,0,6.5770723,0,-10.227347)">
	<g
   id="_x33_8_89_"
   style="fill:#b5e853;fill-opacity:1">
		<g
   id="g16"
   style="fill:#b5e853;fill-opacity:1">
			<path
   d="m 7.452,24.152 h 3.435 v 5.701 h 0.633 c 0.001,0 0.001,0 0.002,0 h 0.636 v -5.701 h 3.51 v -1.059 h 17.124 v 1.104 h 3.178 v 5.656 h 0.619 c 0,0 0,0 0.002,0 h 0.619 v -5.656 h 3.736 v -0.856 c 0,-0.012 0.006,-0.021 0.006,-0.032 0,-0.072 0,-0.143 0,-0.215 h 5.721 v -1.316 h -5.721 c 0,-0.054 0,-0.108 0,-0.164 0,-0.011 -0.006,-0.021 -0.006,-0.032 V 20.75 h -8.154 v 1.028 h -7.911 v -2.652 h -0.689 c -0.001,0 -0.001,0 -0.002,0 h -0.678 v 2.652 H 15.666 V 20.674 H 7.452 v 1.104 H 1.114 v 1.316 h 6.338 z"
   id="path2"
   style="fill:#b5e853;fill-opacity:1"
   inkscape:connector-curvature="0" />
			<path
   d="m 21.484,16.849 h 5.204 v -2.611 h 7.133 V 1.555 H 14.588 v 12.683 h 6.896 z M 16.537,12.288 V 3.505 h 15.335 v 8.783 z"
   id="path4"
   style="fill:#b5e853;fill-opacity:1"
   inkscape:connector-curvature="0" />
			<rect
   x="18.681999"
   y="16.898001"
   width="10.809"
   height="0.537"
   id="rect6"
   style="fill:#b5e853;fill-opacity:1" />
			<path
   d="m 0,43.971 h 6.896 v 2.611 H 12.1 v -2.611 h 7.134 V 31.287 H 0 Z M 1.95,33.236 h 15.334 v 8.785 H 1.95 Z"
   id="path8"
   style="fill:#b5e853;fill-opacity:1"
   inkscape:connector-curvature="0" />
			<rect
   x="4.0949998"
   y="46.631001"
   width="10.808"
   height="0.537"
   id="rect10"
   style="fill:#b5e853;fill-opacity:1" />
			<path
   d="m 29.491,30.994 v 12.684 h 6.895 v 2.611 h 5.205 v -2.611 h 7.133 V 30.994 Z M 46.774,41.729 H 31.44 v -8.783 h 15.334 z"
   id="path12"
   style="fill:#b5e853;fill-opacity:1"
   inkscape:connector-curvature="0" />
			<rect
   x="33.584"
   y="46.338001"
   width="10.809"
   height="0.537"
   id="rect14"
   style="fill:#b5e853;fill-opacity:1" />
		</g>
	</g>
</g>
<g
   id="g21"
   transform="translate(0,252.832)">
</g>
<g
   id="g23"
   transform="translate(0,252.832)">
</g>
<g
   id="g25"
   transform="translate(0,252.832)">
</g>
<g
   id="g27"
   transform="translate(0,252.832)">
</g>
<g
   id="g29"
   transform="translate(0,252.832)">
</g>
<g
   id="g31"
   transform="translate(0,252.832)">
</g>
<g
   id="g33"
   transform="translate(0,252.832)">
</g>
<g
   id="g35"
   transform="translate(0,252.832)">
</g>
<g
   id="g37"
   transform="translate(0,252.832)">
</g>
<g
   id="g39"
   transform="translate(0,252.832)">
</g>
<g
   id="g41"
   transform="translate(0,252.832)">
</g>
<g
   id="g43"
   transform="translate(0,252.832)">
</g>
<g
   id="g45"
   transform="translate(0,252.832)">
</g>
<g
   id="g47"
   transform="translate(0,252.832)">
</g>
<g
   id="g49"
   transform="translate(0,252.832)">
</g>
</svg>