<?xml version="1.0" encoding="UTF-8" standalone="no"?>
<!-- Created with Inkscape (http://www.inkscape.org/) -->

<svg
   xmlns:dc="http://purl.org/dc/elements/1.1/"
   xmlns:cc="http://creativecommons.org/ns#"
   xmlns:rdf="http://www.w3.org/1999/02/22-rdf-syntax-ns#"
   xmlns:svg="http://www.w3.org/2000/svg"
   xmlns="http://www.w3.org/2000/svg"
   xmlns:sodipodi="http://sodipodi.sourceforge.net/DTD/sodipodi-0.dtd"
   xmlns:inkscape="http://www.inkscape.org/namespaces/inkscape"
   width="125.12971mm"
   height="132.29167mm"
   viewBox="0 0 125.12971 132.29167"
   version="1.1"
   id="svg9043"
   inkscape:version="0.92.3 (2405546, 2018-03-11)"
   sodipodi:docname="slpa.svg"
   inkscape:export-filename="/home/jdiaz/Documentos/slpa.svg.png"
   inkscape:export-xdpi="96"
   inkscape:export-ydpi="96">
  <defs
     id="defs9037" />
  <sodipodi:namedview
     id="base"
     pagecolor="#ffffff"
     bordercolor="#666666"
     borderopacity="1.0"
     inkscape:pageopacity="0.0"
     inkscape:pageshadow="2"
     inkscape:zoom="0.7"
     inkscape:cx="-396.41837"
     inkscape:cy="-54.293474"
     inkscape:document-units="mm"
     inkscape:current-layer="g12873"
     showgrid="false"
     inkscape:window-width="1680"
     inkscape:window-height="986"
     inkscape:window-x="1366"
     inkscape:window-y="27"
     inkscape:window-maximized="1"
     fit-margin-top="0"
     fit-margin-left="0"
     fit-margin-right="0"
     fit-margin-bottom="0" />
  <metadata
     id="metadata9040">
    <rdf:RDF>
      <cc:Work
         rdf:about="">
        <dc:format>image/svg+xml</dc:format>
        <dc:type
           rdf:resource="http://purl.org/dc/dcmitype/StillImage" />
        <dc:title />
      </cc:Work>
    </rdf:RDF>
  </metadata>
  <g
     inkscape:label="Capa 1"
     inkscape:groupmode="layer"
     id="layer1"
     transform="translate(-78.305665,11.176589)">
    <g
       id="g12873">
      <g
         id="g12847"
         style="fill:#b5e853;fill-opacity:0.97627121"
         transform="matrix(2.34375,0,0,2.34375,-105.22323,-162.74839)">
        <g
           id="g12822"
           style="fill:#b5e853;fill-opacity:0.97627121">
          <g
             style="fill:#b5e853;fill-opacity:0.97627121"
             transform="matrix(0.132292,0,0,0.132292,76.777707,64.670635)"
             id="g10979">
            <g
               style="fill:#b5e853;fill-opacity:0.97627121"
               id="g10937">
              <g
                 style="fill:#b5e853;fill-opacity:0.97627121"
                 id="g10939">
                <path
                   style="fill:#b5e853;fill-opacity:0.97627121;stroke-width:1.06666672"
                   inkscape:connector-curvature="0"
                   d="M 401.98933,384.01173 V 191.21067 c 0,-10.06294 -8.15573,-18.2208 -18.21866,-18.2208 H 297.2512 v -52.4576 c 0,-4.95467 -2.6848,-9.52107 -7.00907,-11.93387 L 219.99147,69.4208 c -0.3872,-0.216533 -0.7872,-0.4064 -1.18934,-0.581333 V 46.482133 h 37.82934 c 3.0176,0 5.4656,-2.448 5.4656,-5.466666 V 13.403733 c 0,-3.018666 -2.448,-5.4666663 -5.4656,-5.4666663 h -37.82934 v -2.4704 C 218.80213,2.448 216.35627,0 213.33653,0 c -3.01973,0 -5.4656,2.448 -5.4656,5.4666667 V 68.839467 c -0.40213,0.176 -0.80213,0.365866 -1.1904,0.581333 l -70.25066,39.17867 c -4.32854,2.41173 -7.0112,6.9792 -7.0112,11.93386 v 52.45654 H 42.897067 c -10.062934,0 -18.218667,8.15786 -18.218667,18.2208 v 192.8 c -7.7408,3.50293 -13.128533,11.28853 -13.128533,20.33493 0,12.32853 9.992533,22.32 22.318933,22.32 h 358.92907 c 12.3264,0 22.31893,-9.99147 22.31893,-22.32 -0.001,-9.0464 -5.38773,-16.832 -13.12747,-20.33387 z m -70.4256,-147.51466 c 0,-5.86134 4.752,-10.61334 10.6176,-10.61334 h 19.84534 c 5.86026,0 10.61333,4.752 10.61333,10.61334 v 19.84746 c 0,5.86134 -4.75307,10.61334 -10.61333,10.61334 H 342.1824 c -5.8656,0 -10.6176,-4.752 -10.6176,-10.61334 v -19.84746 z m 0,63.7696 c 0,-5.86134 4.752,-10.61334 10.6176,-10.61334 h 19.84534 c 5.86026,0 10.61333,4.752 10.61333,10.61334 V 320.112 c 0,5.86133 -4.75307,10.61333 -10.61333,10.61333 H 342.1824 c -5.8656,0 -10.6176,-4.752 -10.6176,-10.61333 v -19.84533 z m -63.7664,-63.7696 c 0,-5.86134 4.74987,-10.61334 10.6112,-10.61334 H 298.256 c 5.85813,0 10.61227,4.752 10.61227,10.61334 v 19.84746 c 0,5.86134 -4.75414,10.61334 -10.61227,10.61334 h -19.84747 c -5.86133,0 -10.6112,-4.752 -10.6112,-10.61334 z m 0,63.7696 c 0,-5.86134 4.74987,-10.61334 10.6112,-10.61334 H 298.256 c 5.85813,0 10.61227,4.752 10.61227,10.61334 V 320.112 c 0,5.86133 -4.75414,10.61333 -10.61227,10.61333 h -19.84747 c -5.86133,0 -10.6112,-4.752 -10.6112,-10.61333 z m -54.464,-179.69174 c 16.60374,0 30.064,13.4592 30.064,30.06294 0,16.60373 -13.4592,30.06186 -30.064,30.06186 -16.60373,0 -30.06293,-13.4592 -30.06293,-30.06293 0,-16.60373 13.4592,-30.06187 30.06293,-30.06187 z M 183.2288,293.1584 c 0,-5.86133 4.75093,-10.61333 10.61653,-10.61333 h 38.97707 c 5.8624,0 10.61333,4.752 10.61333,10.61333 v 83.616 c 0,1.9136 -0.51093,3.70667 -1.39946,5.2576 h -57.4016 c -0.88854,-1.55093 -1.40267,-3.344 -1.40267,-5.2576 z m -65.43253,-56.66133 c 0,-5.86134 4.75093,-10.61334 10.61226,-10.61334 h 19.8464 c 5.86134,0 10.61227,4.752 10.61227,10.61334 v 19.84746 c 0,5.86134 -4.75093,10.61334 -10.61227,10.61334 h -19.8464 c -5.86133,0 -10.61226,-4.752 -10.61226,-10.61334 z m 0,63.7696 c 0,-5.86134 4.75093,-10.61334 10.61226,-10.61334 h 19.8464 c 5.86134,0 10.61227,4.752 10.61227,10.61334 V 320.112 c 0,5.86133 -4.75093,10.61333 -10.61227,10.61333 h -19.8464 c -5.86133,0 -10.61226,-4.752 -10.61226,-10.61333 z m -63.772803,-63.7696 c 0,-5.86134 4.750933,-10.61334 10.615466,-10.61334 H 84.4832 c 5.863467,0 10.615467,4.752 10.615467,10.61334 v 19.84746 c 0,5.86134 -4.752,10.61334 -10.615467,10.61334 H 64.64 c -5.864533,0 -10.615467,-4.752 -10.615467,-10.61334 v -19.84746 z m 0,63.7696 c 0,-5.86134 4.750933,-10.61334 10.615466,-10.61334 H 84.4832 c 5.863467,0 10.615467,4.752 10.615467,10.61334 V 320.112 c 0,5.86133 -4.752,10.61333 -10.615467,10.61333 H 64.64 c -5.864533,0 -10.615467,-4.752 -10.615467,-10.61333 v -19.84533 z"
                   id="path10941-5" />
              </g>
            </g>
            <g
               style="fill:#b5e853;fill-opacity:0.97627121"
               id="g10943" />
            <g
               style="fill:#b5e853;fill-opacity:0.97627121"
               id="g10945" />
            <g
               style="fill:#b5e853;fill-opacity:0.97627121"
               id="g10947" />
            <g
               style="fill:#b5e853;fill-opacity:0.97627121"
               id="g10949" />
            <g
               style="fill:#b5e853;fill-opacity:0.97627121"
               id="g10951" />
            <g
               style="fill:#b5e853;fill-opacity:0.97627121"
               id="g10953" />
            <g
               style="fill:#b5e853;fill-opacity:0.97627121"
               id="g10967" />
            <g
               style="fill:#b5e853;fill-opacity:0.97627121"
               id="g10957" />
            <g
               style="fill:#b5e853;fill-opacity:0.97627121"
               id="g10959" />
            <g
               style="fill:#b5e853;fill-opacity:0.97627121"
               id="g10961" />
            <g
               style="fill:#b5e853;fill-opacity:0.97627121"
               id="g10963" />
            <g
               style="fill:#b5e853;fill-opacity:0.97627121"
               id="g10965" />
            <g
               style="fill:#b5e853;fill-opacity:0.97627121"
               id="g10975" />
            <g
               style="fill:#b5e853;fill-opacity:0.97627121"
               id="g10969" />
            <g
               style="fill:#b5e853;fill-opacity:0.97627121"
               id="g10971" />
          </g>
          <g
             transform="matrix(0.05201095,0,0,0.05201095,95.459455,162.92786)"
             id="Layer_1"
             style="fill:#b5e853;fill-opacity:0.97627121">
            <g
               transform="translate(-91.15982,-1713.3309)"
               id="g2490"
               style="fill:#b5e853;fill-opacity:0.97627121">
              <path
                 style="fill:#b5e853;fill-opacity:0.97627121;fill-rule:evenodd;stroke-width:0.21229868"
                 d="m 241.82853,219.61563 c -0.7715,0.0525 -1.77588,0.39806 -2.44972,1.60583 -0.55007,0.98634 -1.83871,1.14366 -2.44037,0.94495 -1.00227,-0.3312 -2.28327,-0.5609 -3.52416,0.32332 -1.24089,0.88401 -2.58091,0.21549 -2.3459,-1.39607 0.23502,-1.61135 0.81714,-3.04671 2.36225,-3.9356 3.37448,-1.94126 1.02922,-3.29233 2.88132,-5.24059 1.8557,-1.95208 1.44574,-2.54949 1.38418,-5.20068 -6.27193,-0.94218 -9.82667,-2.7499 -13.79601,-7.7092 -3.96935,-4.95951 -5.50809,-9.0418 -5.91953,-15.2596 -0.41143,-6.21781 -0.0548,-10.24745 2.63166,-15.40864 2.68642,-5.1612 5.51488,-7.64573 10.41643,-10.22282 4.90156,-2.57666 9.70418,-3.19382 14.14334,-3.11867 4.43916,0.0749 7.39712,0.40018 9.90542,1.83129 2.5081,1.4311 4.80263,3.23204 6.26537,3.24498 1.46295,0.013 2.45885,-0.37025 3.16983,-0.915 0.18979,4.81982 -4.14811,5.23847 -8.02893,5.34038 -3.88103,0.10172 -6.26578,-1.50372 -9.84025,-0.90652 -3.57447,0.5972 -9.4269,2.22383 -12.27787,7.1863 -2.85096,4.96249 -2.94819,6.71672 -2.71127,10.87819 0.23693,4.1617 3.81884,7.26656 5.84076,7.30032 2.02172,0.0337 2.47307,-0.55177 4.2428,-1.70604 1.76993,-1.15447 10.80515,-12.33922 13.88815,-14.85156 3.08321,-2.51234 6.12567,-3.28808 9.41077,-3.32842 3.28512,-0.0404 4.12454,0.0711 6.77403,1.15703 2.64949,1.0857 4.27761,3.08533 6.41375,4.30775 1.09185,-0.64263 1.77015,-1.60222 2.77199,-2.33444 3.58296,-2.6187 5.44462,-3.32438 9.70311,-2.90998 2.44759,0.23821 5.53377,1.63641 7.37526,3.23756 3.27894,2.85096 5.98788,6.82009 8.17689,9.83537 1.70455,2.34824 3.71034,5.1578 6.57383,6.03608 3.12652,0.95853 5.47921,-3.09086 5.82463,-5.33697 0.19573,-1.27273 0.45113,-2.38815 0.45326,-3.78891 0.002,-1.40095 -0.14098,-3.10103 -0.54477,-4.56102 -0.40379,-1.45998 -1.09546,-2.91273 -1.84445,-4.11732 -1.21902,-1.96057 -3.21357,-4.01223 -5.28878,-5.06778 -1.16467,-0.59231 -3.90481,-1.6693 -5.63207,-1.70709 -2.11641,-0.0459 -3.72881,0.66513 -5.68557,0.79846 -2.3684,0.16155 -6.59909,0.69399 -8.45586,-1.1358 -1.18165,-1.16446 -1.33026,-1.94126 -1.53215,-3.45962 0.52203,0.43011 1.25213,0.71289 1.90197,0.76789 1.48313,0.12525 2.87177,-1.0857 4.06892,-1.78735 0.98613,-0.57809 2.38263,-1.61114 3.67787,-2.13317 3.32799,-1.34174 7.41602,-1.3031 10.92913,-0.94368 2.81593,0.28788 6.46683,1.54066 8.9365,2.93821 2.48135,1.40373 4.87246,3.77065 6.62393,6.00191 2.20345,2.80743 3.40803,5.21617 4.20606,8.71761 1.0201,4.47144 1.30288,11.18857 0.0696,15.59738 -0.9719,3.47427 -4.19905,8.81124 -6.9462,11.42739 -2.70935,2.58049 -5.83779,3.82605 -9.39548,4.50732 0.13927,0.71799 0.16219,1.38758 0.34626,1.97629 0.26155,0.8356 0.76172,1.76717 1.78925,1.4725 0.40973,-0.1174 0.62904,-0.21909 1.16934,0.25349 0.53987,0.47257 0.25879,2.29813 -1.26064,3.11739 -0.77042,0.41547 -1.58353,0.5057 -2.81741,0.53032 -1.23388,0.0246 -3.15963,0.0299 -4.49924,-0.20466 -1.33939,-0.23438 -2.13955,-1.29736 -3.62309,-1.46379 -2.29261,-0.25646 -4.04812,-1.91282 -5.8864,-3.09744 -0.76705,-0.49444 -1.02584,-0.49954 -1.46785,-0.74941 0.23884,0.73115 0.5573,1.49054 0.7161,2.19347 0.15922,0.70291 0.0913,1.35403 0.17578,1.91662 0.0841,0.56218 0.2401,0.99929 0.33097,1.45531 0.36728,0.32842 0.48467,0.82796 1.10162,0.98507 0.61736,0.15689 1.58396,-0.0874 2.21554,-0.17239 0.6316,-0.0849 1.05492,-0.42906 1.55042,-0.33479 0.49594,0.094 0.96575,0.44901 1.38122,0.78168 0.41547,0.33268 0.77255,0.38129 1.10883,1.21137 0.33628,0.83009 0.64476,2.52997 0.69082,3.66619 0.046,1.13623 -0.0813,2.16184 -0.41801,3.06347 -0.33671,0.90163 -0.63265,1.3014 -1.54448,2.19433 -0.91181,0.89313 -2.39664,2.20365 -3.87826,3.11653 0.2728,0.40401 0.39381,0.77384 0.81926,1.21223 0.42544,0.43861 1.31243,0.93009 1.70709,1.39268 0.39423,0.4626 0.59422,0.79442 0.59995,1.31328 0.006,0.51864 -0.0191,1.1929 -0.4403,1.75847 -1.04898,1.40818 -2.28965,1.66039 -3.79823,2.32276 0.25369,1.58417 0.46068,2.71594 0.094,4.29777 -0.14967,0.64454 -0.48213,2.10601 -1.2772,2.48093 -0.79527,0.37492 -2.3287,0.19341 -3.29932,0.34753 -0.97064,0.15434 -1.51391,0.30083 -2.27054,0.45113 -0.45984,0.66471 -1.1445,1.3982 -1.3791,1.99391 -0.235,0.59592 -0.1641,0.8095 0.0331,1.41794 0.19723,0.60846 0.86873,1.49438 1.05896,2.20685 0.19022,0.71247 0.22715,1.47951 0.0497,2.19389 -0.17791,0.71439 -0.48214,1.23283 -1.091,1.86717 -0.60867,0.63457 -1.80624,1.13283 -2.4028,1.64702 -0.59699,0.5144 -1.19121,0.57618 -1.02838,1.42728 0.22397,1.16891 1.93192,3.06474 3.16749,3.51609 0.7405,0.27068 1.73449,0.18534 2.63379,-0.19426 -0.061,0.99844 -0.92499,1.67144 -1.4895,2.33445 1.52877,-0.43713 3.01125,-1.27401 4.03665,-2.38327 -0.31802,0.96341 -1.41221,2.51001 -3.04882,3.86808 -1.6366,1.35808 -1.62663,1.08017 -2.44016,1.62047 1.48439,0.29829 2.86476,0.21761 4.01457,0.0115 -0.63032,0.34753 -1.66358,0.83623 -3.03226,0.97997 -1.36869,0.14351 -2.21258,0.042 -3.44603,-0.25753 -1.23367,-0.29976 -2.3597,-1.42112 -3.85449,-2.1941 0.14563,0.55453 0.24924,1.22136 0.87785,1.79159 0.62862,0.57024 1.57971,0.86024 2.59068,1.3534 -1.28696,-0.14606 -2.6393,-0.19022 -3.90396,-0.46897 -0.93624,-0.20656 -1.56528,-0.42565 -2.25037,-0.76491 -0.68466,-0.33925 -1.21329,-0.83412 -1.81982,-1.25107 0.29063,0.55516 0.37683,1.20818 0.87148,1.66591 0.49466,0.45771 1.29863,0.62819 1.9489,0.9426 -0.67829,-0.0148 -1.33069,0.13226 -2.03382,-0.0445 -0.70356,-0.17684 -1.36338,-0.45474 -2.09474,-0.99356 -0.73137,-0.53881 -1.48567,-1.20225 -2.10983,-1.88054 -0.62373,-0.67829 -1.39395,-1.55763 -1.62706,-2.18307 -0.23353,-0.62564 0.14012,-1.06318 0.21017,-1.59414 -0.43075,0.28299 -0.96065,0.43882 -1.29162,0.84962 -0.33098,0.4108 -0.62437,0.78593 -0.47789,1.50201 0.14671,0.71609 0.8076,1.59139 1.27486,2.38794 -1.39438,-1.14027 -2.17309,-1.57929 -2.50491,-2.95478 -0.31059,-1.2878 0.49296,-2.45671 1.10374,-3.43053 0.30337,-0.48361 0.75726,-0.9337 1.0409,-1.40053 -0.62989,-0.61631 -1.34979,-1.146 -1.88966,-1.84891 -0.53967,-0.70271 -0.7664,-1.65381 -1.31732,-2.32616 -0.55113,-0.67256 -1.29248,-1.09823 -1.93808,-1.64659 0.56748,1.21901 1.50011,2.71424 1.70263,3.6577 0.20233,0.94345 -0.22694,1.5209 -0.56173,2.03021 -0.33501,0.5093 -0.87552,0.62288 -1.38823,0.93581 -0.51269,0.31313 -1.31009,0.0663 -1.61559,0.53096 -0.30528,0.4645 -0.38723,1.16339 -0.0953,1.62366 l 1.19737,1.88988 c -0.44115,-0.2227 -1.20119,-0.87042 -1.54383,-1.32984 -0.34266,-0.45941 -0.86831,-0.8838 -0.94027,-1.50498 -0.0719,-0.62098 -0.10702,-1.16001 0.2953,-1.71325 0.40252,-0.55304 1.50434,-0.73816 1.99752,-1.1634 0.49317,-0.42523 0.7698,-0.70207 0.74156,-1.25171 -0.028,-0.54964 -0.56493,-0.94283 -1.02647,-1.28929 -1.40902,-1.05682 -3.21653,-2.03063 -4.41305,-3.30443 -0.67596,-0.7197 -1.00035,-1.30075 -1.13623,-1.79733 -0.13565,-0.49635 0.008,-0.88358 0.34372,-1.49415 0.33585,-0.61078 1.48757,-1.42622 1.62769,-2.08966 0.13991,-0.66322 -0.44179,-0.80567 -0.9668,-1.03962 -0.52502,-0.23396 -1.52219,0.11995 -2.0092,-0.28703 -0.4868,-0.40698 0.14309,-1.26212 -0.4057,-1.73109 -0.54858,-0.46896 -1.80433,-0.2072 -2.45247,-0.71162 -0.64815,-0.50463 -0.91607,-1.13092 -1.13941,-1.86292 -0.22334,-0.73201 -0.24861,-1.53386 -0.0972,-2.06397 0.15137,-0.53011 0.6061,-0.62288 0.88039,-0.8976 0.2743,-0.27471 0.51228,-0.50251 0.14671,-0.91225 -0.36558,-0.40952 -1.56358,0.0229 -2.25228,-0.50293 -0.6887,-0.52586 -0.26707,-1.78544 -0.75408,-2.31639 -0.48681,-0.53096 -1.36062,-0.32312 -1.82174,-0.49274 -0.4609,-0.16963 -0.64178,0.42884 -0.92456,-0.51759 -0.28279,-0.94664 -0.29043,-3.7683 -0.67086,-4.8213 -0.38044,-1.05301 -1.12752,-0.0711 -1.47442,-1.11776 -0.34689,-1.04642 -0.0181,-2.71996 -0.1743,-4.30052 l -0.70801,-4.30054 c -2.46988,1.65911 -4.10034,2.18009 -6.75386,2.64885 -0.22143,6.49251 -0.83136,10.31581 1.3723,17.51889 2.20366,7.20286 6.66342,11.44799 12.67975,17.54626 -7.93891,-5.94776 -11.72908,-10.78307 -14.1013,-16.97752 -2.37265,-6.1953 -1.91707,-11.37623 -1.67843,-17.34183 z m 42.18544,-2.60957 c 0.61078,0.0274 1.35298,0.18236 1.78182,0.4609 0.42905,0.27853 0.88444,0.50612 1.27379,0.90248 0.97148,0.98931 1.70009,2.18243 2.02215,3.55346 0.20529,0.87403 0.23587,1.99497 0.31059,3.02122 -0.29404,-0.94855 -0.49168,-1.93765 -0.91055,-2.78748 -0.66046,-1.34004 -1.78246,-2.648 -3.17577,-3.2503 -0.45984,-0.19913 -0.76661,-0.16219 -1.01967,-0.12696 0.11311,0.19002 0.30274,0.34924 0.31101,0.62756 0.008,0.27833 -0.054,0.82288 -0.52586,1.05173 -0.76087,0.36919 -1.60668,0.10954 -2.19432,-0.40995 -0.59253,-0.52352 -0.79442,-1.40924 -0.48425,-2.17032 0.36961,-0.90695 1.778,-0.90928 2.61106,-0.87234 z m -7.65804,-1.29078 c 0.0766,-1.55933 0.63944,-2.87431 2.03679,-3.63901 0.72267,-0.3953 1.83596,-0.90652 2.85904,-1.02667 0.98273,-0.11528 3.37321,-0.031 4.8111,0.62522 1.10417,0.50399 1.85634,1.28865 2.82592,1.86207 0.96935,0.57363 1.65889,0.9581 2.58197,1.60136 1.41687,0.98741 2.24739,2.07459 3.2297,2.72634 0.47236,0.31314 1.13686,0.26665 1.76399,0.45814 -0.48765,0.14479 -1.12498,0.30444 -1.65105,0.1363 -0.656,-0.20975 -1.57313,-0.80949 -2.08201,-1.23939 -0.8993,-0.75961 -1.36551,-1.13029 -2.34696,-1.70328 -0.58595,-0.34137 -1.55084,-0.74368 -2.19475,-1.16361 -0.64432,-0.41993 -1.76272,-1.34131 -2.38177,-1.65317 -0.787,-0.39615 -2.20387,-0.61652 -3.08004,-0.59082 -1.20713,0.0352 -2.95435,0.23437 -3.88846,1.08187 -0.92796,0.8424 -1.28037,1.58353 -1.07105,2.67751 0.34945,-0.40252 0.58213,-0.90822 0.93221,-1.20755 0.72521,-0.61949 1.55742,-0.64943 2.46012,-0.53203 1.01414,0.13206 1.52472,0.71779 1.85973,1.68056 -0.22546,-0.16559 -0.63986,-0.52926 -0.96702,-0.64199 -0.76788,-0.26495 -1.34852,-0.18343 -2.06779,0.20232 -0.84919,0.45559 -0.61821,1.12985 -0.7405,1.87969 -0.056,0.34583 -0.18661,0.62437 -0.2798,0.93667 -0.3193,-0.0845 -0.61461,-0.2174 -0.8562,-0.45687 0.0103,0.35029 -0.041,0.65664 0.0307,1.05066 0.0713,0.39382 0.26325,0.86173 0.39467,1.29248 -0.59125,-0.59147 -1.19631,-1.14217 -1.57823,-1.90581 -0.38235,-0.76406 -0.64136,-1.61198 -0.60039,-2.45099 z m 1.02328,-11.34948 c 0.43585,-0.64687 0.56344,-1.63917 0.83221,-2.4459 -0.10736,1.0218 0.0992,2.14549 -0.39975,2.88557 -0.49891,0.74007 -1.37507,0.61036 -2.10091,0.82563 0.56471,-0.43055 1.23239,-0.61843 1.66845,-1.2653 z m -10.43469,15.15133 c 0.55962,-0.45305 2.06991,-0.0909 3.19955,-0.0104 -0.81183,0.20783 -1.62366,0.41588 -2.43548,0.62372 -0.0756,0.2762 -0.0414,0.59275 -0.22674,0.82818 -0.18555,0.23565 -0.53796,0.32291 -0.80674,0.48404 0.0266,-0.72564 -0.29021,-1.47313 0.26941,-1.92597 z m 7.95929,-31.46691 c 0.67426,0.36303 1.53003,0.84303 2.12553,0.8579 0.5955,0.0148 0.75133,-0.38936 1.10162,-0.62268 0.55113,1.79712 1.18378,3.7717 2.12214,5.40237 0.39317,0.68318 0.6439,0.36558 0.94281,1.05215 0.29849,0.68637 0.43118,2.08308 0.71439,2.96008 0.28364,0.877 0.65346,1.5224 0.98019,2.28349 -0.82967,-1.17549 -1.90156,-2.67432 -2.36395,-3.6526 -0.46196,-0.97806 -0.16623,-1.06319 -0.5403,-1.99476 -0.37407,-0.93157 -1.13028,-2.38369 -1.69541,-3.57553 -0.40465,0.0537 -0.90567,0.12737 -1.2133,0.0325 -0.30761,-0.0949 -0.24626,-0.42204 -0.52416,-0.63349 -0.27832,-0.21145 -0.74601,-0.1295 -1.1358,-0.46706 -0.38978,-0.33735 -0.47852,-1.02965 -0.51376,-1.64234 z m -3.63052,8.86751 c 0.63456,-0.0556 1.42261,0.11438 2.01684,0.0807 0.59422,-0.0337 1.0184,-0.18787 1.5277,-0.28193 -0.0945,-0.89505 -0.005,-2.53951 -0.83115,-3.13714 -0.53372,-0.38595 -2.72571,-0.0953 -3.31123,0.031 -1.31752,0.28405 -2.85181,1.07041 -4.12602,1.56209 1.22114,-0.85301 2.27606,-1.64362 3.7407,-2.08392 0.88041,-0.26475 2.93504,-0.60887 3.84368,-0.36346 0.41482,0.11184 0.49868,0.28363 0.75025,0.63519 0.86491,1.20756 0.86237,2.25123 1.08677,3.65791 0.22057,0.34371 0.45559,0.573 0.63434,0.92753 0.17834,0.35454 0.27939,0.91247 0.32927,1.36848 -0.22631,-0.32821 -0.0879,-0.73985 -0.7148,-0.98421 -0.62735,-0.24435 -1.58779,-0.0161 -2.43294,0.0721 0.61608,0.44455 0.92222,0.87276 0.94578,1.81261 0.0276,1.10353 -0.90673,1.89774 -1.88223,1.97332 -1.35426,0.10506 -2.05251,-0.19234 -2.60025,-1.34979 -0.23989,-0.50698 -0.0661,-1.11691 -0.086,-1.61114 -1.62726,0.11311 -1.60073,0.0601 -2.79003,1.05172 0.64645,0.94707 1.05364,1.49162 2.12193,2.05825 0.5991,0.31801 1.2774,0.62713 2.01981,0.75344 0.74262,0.12632 1.96057,0.24839 2.74056,0.12865 0.7802,-0.11973 1.2222,-0.34244 1.80051,-0.87722 0.57851,-0.53499 0.63158,-1.30096 0.85748,-1.90644 -0.0513,0.58276 -0.11826,1.32496 -0.33459,1.74765 -0.65813,1.28504 -1.79627,1.6659 -3.15518,1.67014 -1.30436,0.005 -2.91784,-0.29658 -4.13134,-0.79972 -0.9702,-0.4021 -2.57858,-1.54086 -2.96029,-2.53018 -0.26092,-0.67595 -0.0543,-1.50541 -0.0817,-2.25822 1.34342,-0.89335 1.67588,-0.67362 3.26536,-0.93517 0.66492,-0.10955 1.12222,-0.35645 1.75677,-0.41228 z m -7.82554,-6.05073 c 0.0377,-0.53521 0.097,-0.52374 0.14564,-0.78572 -1.2239,-0.32736 -1.71475,0.46663 -2.43231,1.94126 -0.26856,0.55176 -0.002,0.88019 -0.29085,1.24344 -0.28766,0.36324 -0.75133,0.31228 -1.21859,0.66109 -0.46727,0.3486 -0.93029,1.01628 -1.36721,1.37739 -0.89653,0.74114 -2.10833,1.19355 -3.14817,1.69224 0.71014,-0.52396 2.08817,-1.31859 2.53399,-2.07989 0.23651,-0.40358 0.20147,-1.16468 0.5696,-1.52749 0.36791,-0.36303 0.49678,-0.61419 0.9719,-0.70675 0.47513,-0.0925 0.28406,-0.64326 0.43734,-1.08102 0.15328,-0.43776 0.45856,-0.74856 0.78338,-1.1859 0.32482,-0.43733 0.73456,-1.09398 1.37591,-1.33238 0.64136,-0.23863 1.6415,0.0193 2.12702,-0.11804 0.48531,-0.13736 0.20656,-0.4902 0.55919,-0.70207 0.35306,-0.21188 1.03942,-0.11847 1.51093,-0.34499 0.83582,-0.40189 1.23558,-1.07274 1.7383,-1.79095 0.0731,1.54596 0.0552,2.65904 -0.50038,4.1135 -0.62565,1.63703 -1.25979,2.60129 -3.03545,3.60801 -0.61185,0.34669 -1.22072,0.46706 -1.7279,0.649 0.29573,-0.40337 0.71906,-0.57851 0.88741,-1.2101 0.16793,-0.63202 0.0425,-1.88521 0.0802,-2.42063 z m 28.66839,7.53808 c -0.84431,0.055 -1.04451,-0.056 -1.72005,0.42035 0.36622,0.56982 0.73222,1.13963 1.09802,1.70943 -0.0323,-1.12476 0.0773,-1.35021 0.62203,-2.12978 z m -2.21216,-0.81735 c 1.16935,-0.49804 2.18817,-0.90098 3.46026,-0.9806 0.50995,-0.0321 1.3016,0.0469 1.81664,0.0703 0.4386,-0.64582 0.99759,-1.15512 1.20246,-1.89222 0.13566,-0.48893 0.0688,-2.75819 -0.17133,-3.34731 -0.69952,-1.71453 -1.37951,-1.78692 -2.34229,-2.76902 -0.69867,-0.71226 -0.72648,-1.79689 -0.93539,-3.01231 -0.0766,-0.44646 -0.29573,-1.01138 -0.39847,-1.47207 -1.25851,-0.21209 -2.61192,-0.28193 -4.05979,-0.20954 0.70206,-0.67342 1.38079,-1.28866 1.58225,-2.29962 0.20105,-1.01096 0.0374,-2.25397 -0.53733,-3.16049 -0.57469,-0.90652 -1.49267,-1.69627 -2.33528,-2.43485 -0.84304,-0.73859 -2.05122,-1.34831 -2.8499,-1.95252 1.03878,-0.37194 2.09943,-0.9184 3.11698,-1.11562 2.65076,-0.51419 4.93466,0.27216 7.49137,1.81791 1.48652,0.89908 2.71595,1.75316 4.26997,3.38001 1.5536,1.62663 3.48064,4.61048 4.98477,6.37999 1.50414,1.76951 2.71849,3.16899 4.0307,4.22433 1.31243,1.05555 2.50025,1.35615 3.75005,2.03403 l 1.94805,2.06863 1.57653,-1.95081 2.53676,0.28682 0.52417,-2.84735 2.32827,-0.63796 -0.3798,-3.83836 1.67397,-1.18803 -1.25808,-2.38814 1.27825,-2.60958 -1.66654,-2.983 0.64263,-2.87219 -1.92938,-1.64425 -0.25178,-3.05223 -2.69152,-1.02667 -1.07975,-2.65543 -3.02611,-0.034 -1.48439,-1.97119 -2.03722,0.14266 -2.27096,-0.24733 -1.28419,-0.94811 -1.86377,1.23727 -2.25525,-1.17592 -4.48311,1.702 2.92251,-2.54164 3.02779,-0.48362 2.31958,-0.59125 3.13268,1.0288 2.75734,-0.69847 2.65861,1.57165 2.81338,-0.15561 1.38207,2.47986 2.80128,0.32333 1.5156,2.75712 1.76187,0.96193 0.46769,3.53201 1.5691,1.48822 -0.68997,3.09042 1.84848,2.34039 -1.7332,2.50767 1.85337,1.5674 -2.36925,2.09985 2.3996,2.49897 -2.89788,0.93452 1.88755,2.68028 -2.36713,0.40846 1.55233,2.94713 -2.66774,-0.0354 1.34385,2.20748 -2.92612,-0.3522 0.69996,3.17577 -2.21131,-1.94529 -0.75748,3.84898 -1.52601,-2.76371 -0.82648,3.4471 -1.88372,-2.54186 0.0514,3.6146 -2.08201,-3.25008 c 0.43903,1.84403 0.35114,3.8632 1.56231,5.60171 3.75259,-0.50781 6.20528,-1.45339 9.08023,-4.21986 2.61849,-2.51956 5.74819,-7.77288 6.59569,-11.10491 0.96701,-3.80228 0.99674,-10.79539 0.0444,-14.66645 -0.91672,-3.72711 -2.10814,-5.50745 -4.23685,-8.54883 -2.03467,-2.16099 -4.03579,-4.44385 -6.6182,-5.98492 -3.7908,-2.26204 -8.65159,-2.87198 -12.97187,-2.81317 -2.39218,0.0327 -3.99462,0.49211 -5.42486,1.01223 -2.5011,0.90949 -4.50137,2.89342 -7.04408,3.87383 -0.82924,0.3195 -1.49394,0.32948 -2.14697,-0.0193 0.63944,1.27931 1.33514,1.85315 2.92993,2.31872 1.15363,0.33671 3.90629,0.12377 5.80127,-0.0512 2.03425,-0.18788 3.09531,-0.79272 5.8639,-0.75472 2.70384,0.0372 4.84636,1.06425 6.01782,1.73405 2.41703,1.38207 4.15023,2.91529 5.65628,5.34399 0.82711,1.33366 1.40647,2.83843 1.81451,4.37399 0.40803,1.53555 0.5868,3.25538 0.61291,4.75867 0.0261,1.50329 -0.0887,2.84523 -0.45644,4.19799 -0.86002,3.16708 -2.75734,6.38977 -6.65472,5.89193 -2.38497,-0.30487 -5.98045,-4.78139 -7.18461,-6.42374 -2.42975,-3.31461 -4.92978,-6.9825 -7.98286,-9.7428 -1.86143,-1.68247 -4.41007,-2.84035 -6.91286,-3.06942 -4.69541,-0.42969 -6.08788,0.46218 -9.62223,3.37534 0.71906,0.22928 1.42092,0.35581 2.1578,0.68784 1.63534,0.7369 3.13099,1.68926 4.43556,2.91083 1.36699,1.28037 1.98033,2.09071 2.02895,3.92413 0.0322,1.21753 -0.96936,2.19368 -1.88756,3.07176 -0.56174,0.53774 -1.30521,1.03007 -1.76017,1.44745 -0.60293,0.55389 -1.34958,1.15979 -0.5921,2.04209 0.28491,0.33161 0.77956,0.58171 1.19674,0.89145 0.66215,0.49146 0.35899,2.31808 -0.51335,2.80255 -1.11626,0.61928 -2.45014,0.55007 -3.37066,-0.27895 1.1619,-0.17389 1.89986,-0.32801 1.86971,-1.27848 -0.0174,-0.5509 -0.71778,-1.00863 -1.40521,-1.32198 -1.65783,-0.75579 -2.90998,-0.64433 -4.55996,-1.83149 -1.66655,-1.19971 -1.70326,-1.85656 -2.15376,-3.74007 -0.80356,0.0841 -1.54342,0.10253 -2.61786,0.45835 -1.07444,0.3556 -2.26184,1.20225 -3.23734,1.41179 -2.45673,0.52862 -2.94628,0.37194 -4.29077,0.0239 -2.36713,-0.6127 -5.44929,0.43627 -8.51106,1.4156 -0.50909,0.16284 -2.56817,0.006 -3.95428,0.4919 -2.14081,0.75111 -5.14463,2.57009 -6.87953,4.03113 -2.62868,2.21407 -6.0832,8.84012 -8.03507,16.44551 -0.20509,2.31193 0.4524,3.86956 -1.00397,4.99878 -1.45636,1.12921 -1.41603,4.0222 -1.90984,4.83362 -0.4938,0.81118 -1.06553,0.45261 -2.12851,1.59202 -1.06298,1.13941 -1.60413,0.94897 -1.57737,3.10339 0.91607,-0.6023 2.25164,-1.30245 3.42437,-1.34471 1.03856,-0.0376 1.04961,1.32984 3.71522,-1.30542 1.42559,-1.40988 4.16446,-1.45297 6.06474,-2.0748 1.90051,-0.62182 5.32509,-1.90325 8.75499,-5.73779 3.4299,-3.83454 5.07118,-7.8714 5.73632,-13.70749 0.10598,1.03474 0.28978,2.20175 -0.15329,5.05611 -0.44306,2.85435 -1.39798,6.06027 0.61376,9.90033 l 1.25341,2.3924 c -0.74623,-1.0184 -2.20387,-2.67964 -2.64269,-3.86341 l -1.01225,-2.7308 c -2.26458,3.55557 -2.78515,4.19162 -5.93098,6.73899 -0.12526,1.58035 -0.15605,3.22864 0.36048,4.74085 0.51652,1.51198 -0.30677,3.25496 0.0862,4.25085 0.39297,0.99589 1.30181,0.42906 1.59861,1.43727 0.29679,1.0082 -0.15498,3.00147 0.30528,3.9842 0.46027,0.98273 1.58948,0.38639 2.13679,0.70377 0.54731,0.3176 0.72627,0.75281 1.01903,1.1704 0.29256,0.41738 -0.11438,1.40415 0.48086,1.72451 0.59507,0.32057 1.52345,0.049 2.14273,0.35666 0.61928,0.30762 0.71332,1.04705 0.56493,1.70963 -0.14861,0.6626 -0.81035,0.9666 -1.10098,1.64023 -0.29042,0.67384 -0.25795,1.14281 0.091,1.76144 0.34903,0.61885 1.12179,0.95959 1.89201,1.27188 0.77022,0.31229 1.85252,0.13693 2.64737,0.56875 0.79484,0.43182 1.50923,1.29226 1.92895,1.91769 0.4197,0.62522 0.53626,1.06638 0.51482,1.72387 -0.0216,0.65728 -0.28831,1.41454 -0.63924,2.04953 -0.35092,0.63498 -1.12517,1.40776 0.0837,2.62041 1.20883,1.21243 1.16425,0.68975 1.85677,1.47632 -0.0754,-1.36062 -0.63754,-2.46903 -0.22653,-3.49338 0.41122,-1.02434 1.64574,-1.20246 2.29644,-1.66314 0.65069,-0.4609 1.02541,-1.09398 1.53832,-1.64086 -0.007,0.70377 0.0679,1.4604 -0.0121,1.9903 -0.16305,1.07741 -0.48107,2.03382 1.12455,2.20663 0.72329,0.0777 1.41009,-0.39126 2.17117,-0.67277 -0.39869,0.71395 -1.09206,1.28801 -1.1963,2.14252 -0.10425,0.85407 0.0211,1.79243 0.61248,2.64014 0.59168,0.84728 1.61326,1.47654 2.36182,1.9746 0.74836,0.49826 1.14939,0.53817 1.72451,0.80758 0.0282,0.83985 -0.13714,1.72875 -0.0414,2.51977 0.0957,0.79103 0.34499,1.49118 0.80228,2.14507 0.45771,0.65409 1.19164,1.02921 1.88287,1.51283 -0.37894,-0.88252 -1.14768,-1.71982 -1.13728,-2.64757 0.0104,-0.92753 0.28852,-1.58502 1.19333,-2.4081 0.90482,-0.8233 3.02314,-1.53727 4.022,-2.33762 0.99887,-0.80059 1.32114,-1.29099 1.67971,-2.06822 0.35857,-0.77723 0.25879,-2.02936 0.32503,-2.72804 0.32886,0.9787 0.37577,1.28292 0.48255,2.30684 0.10748,1.02413 -0.59677,2.46054 -0.89484,3.21866 1.23559,-0.59677 2.01981,-1.55063 2.41576,-2.48284 0.26494,0.15711 0.13141,0.58786 0.22885,1.41795 0.44031,-0.43818 0.94091,-0.77532 1.38418,-1.18888 0.44371,-0.41313 0.92966,-0.77658 1.14981,-1.3534 0.21974,-0.57681 0.12972,-1.19015 -0.0339,-1.86037 -0.16368,-0.67022 -0.91267,-1.44745 -1.31604,-2.18053 -0.40294,-0.73284 0.0713,-1.45233 0.0439,-2.33549 -0.80695,-0.13863 -1.49224,-0.54964 -2.41979,-0.4161 -0.92795,0.13332 -1.99072,1.17464 -2.93905,1.18675 -0.94834,0.0121 -1.48079,-0.87637 -2.25822,-1.12052 -0.77744,-0.24414 -1.56401,-0.21739 -2.34569,-0.32609 0.99015,-0.94855 4.83319,-1.40032 7.46187,-1.82894 2.313,-0.37726 4.60836,-0.59529 6.95193,-0.6282 1.04663,-0.0148 2.39176,0.33076 3.11846,0.12185 0.72734,-0.20847 0.57214,-0.70376 0.78784,-1.24364 0.60336,-1.50902 0.30592,-2.85286 -0.0223,-4.3725 -2.10388,-0.2467 -4.29609,-0.54858 -6.41588,-0.38575 -2.07246,0.15923 -4.52664,1.1445 -6.66428,1.21117 -1.85846,0.0578 -4.61049,-0.35602 -6.20633,-1.32878 -1.95018,-1.18866 -3.45899,-3.74155 -3.99462,-4.56124 -0.87233,-1.33514 -1.97267,-3.95449 -2.64226,-5.15206 -0.66917,-1.19758 -0.81672,-1.53258 -1.37358,-2.03255 -0.55686,-0.49975 -1.31964,-0.53839 -1.97926,-0.8078 0.76045,0.0777 1.59076,-0.16304 2.28157,0.23311 1.03793,0.59549 2.19963,3.06368 2.84545,4.1377 0.68424,-2.29367 0.52459,-3.19552 2.50448,-4.48885 -1.59564,1.78841 -1.63534,3.14309 -2.02426,5.24867 1.32687,2.17775 3.17153,5.64671 5.58536,6.60928 0.87192,0.34795 2.36925,0.5662 3.31186,0.68275 2.93354,0.36325 5.76306,-0.56641 8.64417,-1.27783 2.106,-0.52013 4.243,-0.31059 6.80438,-0.16006 0.86957,0.051 2.91996,-0.47216 3.34455,-1.35172 0.22929,-0.47449 0.2123,-1.04471 -0.11697,-1.55041 -0.32971,-0.5057 -1.20777,-0.75027 -1.67844,-1.20544 -0.47066,-0.45516 -0.74135,-0.99547 -1.11201,-1.4933 -1.95634,0.37534 -3.56556,0.51949 -5.01769,0.55898 1.04154,-0.42906 2.04083,-0.67384 3.12483,-1.0978 1.084,-0.42396 2.3149,-1.11987 3.18979,-1.69732 0.87488,-0.57767 1.43343,-0.91268 2.06651,-1.58481 0.63266,-0.67256 1.44427,-1.3653 1.91069,-2.18732 0.46684,-0.82201 0.53902,-1.74148 0.56514,-2.75882 0.0261,-1.01713 -0.0178,-2.4444 -0.41016,-3.26387 -0.39191,-0.81927 -1.14769,-1.06787 -1.75486,-1.2617 -0.60739,-0.19382 -1.02328,0.29638 -1.65487,0.36261 -0.63202,0.0663 -1.22242,0.4645 -2.13615,0.0349 -0.91374,-0.4297 -1.99688,-1.30438 -2.92081,-2.60258 -0.92349,-1.29842 -1.58396,-3.42056 -2.5255,-5.05313 -1.62303,-2.81423 -3.6456,-5.44312 -5.57985,-8.05079 -0.15922,-0.64306 -0.39848,-1.53174 -0.47809,-2.40407 -0.13885,-1.52006 -0.16496,-3.09914 0.30677,-4.58099 0.36154,-1.13515 0.88741,-2.33421 2.07607,-2.79978 0.47555,-0.1864 1.0772,-0.26029 1.50222,-0.10276 0.42545,0.15731 0.84261,0.63733 0.67554,1.19185 -0.18364,0.60972 -0.60612,0.62628 -0.89315,0.93411 -0.48722,0.52226 -0.68211,0.90545 -0.86617,1.55657 0.5265,-0.008 1.23813,-0.0486 1.67058,0.0651 0.56429,0.14861 1.08972,0.52268 1.37612,1.3222 -0.67341,-0.5972 -1.008,-0.87127 -1.84849,-0.89251 -0.38511,-0.009 -0.85301,0.12824 -1.2791,0.19234 -0.15922,0.51801 -0.25285,1.15321 -0.47767,1.55403 -0.22483,0.40083 -0.66259,0.30465 -0.82691,0.77298 -0.16432,0.46749 -0.17387,1.22879 -0.091,1.84339 z m 5.88386,-0.70206 c 0.25794,0.10172 0.35624,0.12397 0.68297,0.37258 0.32672,0.2486 0.77743,0.49678 1.03622,1.09079 0.25922,0.59423 0.24713,1.51306 0.19193,1.88733 -0.22716,-0.0666 -0.53691,-0.0216 -0.77256,-0.22312 -0.23502,-0.20147 -0.37534,-0.6577 -0.6768,-0.85302 -0.3019,-0.1951 -0.55347,-0.15242 -0.887,-0.19468 0.17133,0.48744 0.25455,0.97509 0.17494,1.4171 -0.17281,0.96489 -0.74007,1.45361 -1.65847,1.5691 -0.40103,0.0503 -1.03793,-0.0817 -1.38695,-0.14521 0.16176,0.36133 0.43585,0.67787 0.59783,1.0392 0.77658,-0.11231 1.35213,-0.0964 1.76972,-0.2917 0.4176,-0.19532 0.86533,-0.63286 1.40117,-0.8182 0.53606,-0.18534 1.01415,-0.18237 1.60053,-0.27387 -0.46197,0.39806 -0.76513,0.79634 -1.22645,1.1944 0.3384,0.98358 0.6768,1.96695 1.01499,2.95031 0.71736,0.44881 1.39035,0.6853 2.29431,1.2394 0.90439,0.55432 1.9886,1.54575 3.16623,2.08647 1.17762,0.54073 1.87884,0.83497 3.10932,1.06701 1.23028,0.23205 2.20918,1.22858 3.41992,1.39056 1.21074,0.16199 3.47215,0.19468 4.4052,0.10356 1.05937,-0.10333 2.4357,-0.65005 2.55926,-1.81154 -0.88826,0.21909 -2.24485,0.0225 -2.92993,-1.64891 -0.30401,-0.7422 -0.15498,-2.10707 -0.62034,-2.98472 -0.46515,-0.87785 -1.11372,-1.15957 -1.88861,-2.24102 -0.77489,-1.08145 -2.04252,-2.78726 -2.75415,-4.23621 -0.7112,-1.44873 -0.8787,-3.0898 -1.48036,-4.388 -0.60165,-1.29799 -1.50923,-2.34654 -2.21257,-3.34709 -1.53578,-2.18669 -2.77432,-3.68105 -5.3045,-4.78416 -1.2169,-0.53054 -2.60236,-0.67192 -3.90353,-1.008 -0.52947,0.23714 -1.25554,0.49912 -1.38441,1.1184 -0.12886,0.61927 0.11869,1.53386 0.56811,1.99879 0.75218,0.77722 1.86675,1.61729 2.30493,2.85266 0.28151,0.79272 0.36324,3.45027 0.11932,4.17145 -0.25306,0.74878 -0.84135,1.20161 -1.33027,1.7003 z m 0.245,6.2902 c -0.23502,0.20274 -0.4142,0.411 -0.7923,0.57936 -0.37769,0.16835 -0.89357,0.21187 -1.39481,0.33713 0.70293,1.09419 1.4413,2.19984 2.11471,3.35028 0.67383,1.15024 1.25766,2.4098 1.90071,3.61439 -0.0304,-0.6904 0.0104,-1.42644 -0.09,-2.07161 -0.10045,-0.64497 -0.39275,-1.20947 -0.68254,-2.17777 -0.28936,-0.96829 -0.6456,-2.28561 -1.05576,-3.63178 z m -18.91263,-24.05854 c -0.0992,1.07635 0.083,2.75903 0.30591,3.81288 0.26708,1.26148 0.52417,1.91557 1.54788,2.6756 1.8746,1.39162 3.07132,1.15703 4.51347,1.96398 0.68615,0.38405 1.55572,1.02774 1.80942,1.70815 0.2537,0.68042 -0.1675,1.41922 -0.68785,1.70964 0.91013,0.13545 1.93065,-0.89059 1.50477,-1.94401 -0.20975,-0.51843 -1.20818,-0.74941 -1.51432,-1.27252 -0.3055,-0.52289 -0.30486,-1.06129 -0.16092,-1.59245 0.26007,-0.95747 2.1544,-1.82747 2.82378,-2.58432 1.03008,-1.16467 1.42558,-2.13891 0.84219,-3.63879 -0.81926,-2.10707 -3.98442,-3.79781 -5.87876,-4.62472 -0.86746,-0.37853 -1.35383,-0.40549 -2.03042,-0.60823 1.38524,0.81183 2.84564,1.45848 3.54644,3.27322 0.58509,1.51559 0.0784,2.08668 0.0979,3.40633 0.009,0.61184 0.8148,0.91777 1.17253,1.30436 0.31144,0.33607 0.28618,0.58552 0.0374,1.04939 -0.0274,-0.41844 -0.20615,-0.73073 -0.52736,-0.95811 -0.53032,-0.37598 -1.10162,-0.29508 -1.38418,-1.06595 -0.42884,-1.17188 0.42162,-2.28178 -0.53457,-3.59761 -0.71524,-0.98443 -1.66654,-2.08626 -2.94989,-2.11513 -0.60739,-0.0138 -1.06404,0.0779 -1.71283,0.26983 l -0.8649,-1.0409 -0.02,-0.0136 c -1.75931,-1.60561 -2.96305,-2.92887 -5.43102,-4.03239 -2.46797,-1.10332 -3.68423,-1.2704 -6.51396,-1.20756 -2.82973,0.0626 -5.63802,0.29934 -8.91548,3.12567 -3.27726,2.82633 -11.72399,13.64911 -13.77245,15.01886 -2.04826,1.36975 -2.50195,1.83384 -5.06141,1.83448 -2.55948,6.3e-4 -6.55409,-3.61969 -6.71056,-8.1442 -0.15667,-4.52473 -0.21951,-6.13289 2.92569,-11.58366 3.14541,-5.45098 8.84352,-7.12474 13.07123,-7.68989 4.22793,-0.56513 6.76851,0.92393 9.89587,0.93094 3.12717,0.007 6.21781,-0.53266 7.12921,-3.01974 -0.44603,0.26559 -1.04366,0.56492 -2.72422,0.47683 -1.68055,-0.0881 -4.01075,-2.03383 -6.63199,-3.33756 -2.62125,-1.30351 -5.53824,-1.45615 -9.27958,-1.52685 -3.74134,-0.0707 -8.40979,0.21528 -13.03492,2.71212 -4.62514,2.49684 -7.78224,5.14613 -10.46484,10.03281 -2.68261,4.88691 -3.08343,8.87685 -2.65098,14.79383 0.43246,5.91697 2.25737,10.3175 5.77113,14.64817 3.51376,4.33069 7.02539,6.44964 13.3574,7.23748 l 1.33303,-5.87983 -2.37965,3.41504 0.0588,-3.79823 -2.15251,2.67093 -0.94409,-3.62225 -1.74381,2.90404 -0.86619,-4.04429 -2.52699,2.0438 0.79994,-3.33712 -3.3437,0.37004 1.53598,-2.31958 -3.04882,0.0372 1.77397,-3.09679 -2.70512,-0.42949 2.15696,-2.81656 -3.31185,-0.98188 2.74204,-2.62572 -2.70744,-2.20642 2.11767,-1.647 -1.98031,-2.63506 2.11237,-2.45906 -0.78849,-3.24731 1.79372,-1.56358 0.53393,-3.7112 2.01302,-1.01097 1.73192,-2.89702 3.20126,-0.33989 1.5795,-2.60576 3.21527,0.16369 3.03842,-1.65147 3.15115,0.73391 3.57935,-1.08103 2.65098,0.62119 3.45961,0.50846 3.3401,2.67071 -5.1234,-1.7884 -2.57731,1.23579 -2.13041,-1.30033 -1.46678,0.99632 -2.59535,0.25985 -2.32743,-0.15031 -1.6967,2.07119 -3.45855,0.0357 -1.23367,2.79025 -3.07535,1.07891 -0.28767,3.20719 -2.20536,1.72769 0.73477,3.01804 -1.90453,3.13458 1.46103,2.74183 -1.43789,2.50938 1.91302,1.24832 -0.43394,4.03324 2.66053,0.67044 0.59932,2.99193 2.89915,-0.30125 1.80114,2.04996 2.22616,-2.17373 c 4.05831,-2.02364 5.72952,-3.15561 8.89234,-6.57637 3.60037,-3.89421 5.66392,-7.49458 10.45975,-10.16084 3.43966,-1.91238 6.24518,-2.60066 10.10902,-1.93297 3.62776,0.6267 4.84254,2.80276 7.51431,5.09517 0.28321,-0.5127 0.34074,-0.64858 0.80738,-1.02604 -0.14649,0.66577 -0.37917,1.35637 -0.4384,1.99667 z"
                 id="path2492"
                 inkscape:connector-curvature="0" />
            </g>
          </g>
        </g>
      </g>
    </g>
  </g>
</svg>
